<?xml version="1.0" encoding="iso-8859-1"?>
<!-- Generator: Adobe Illustrator 20.0.0, SVG Export Plug-In . SVG Version: 6.00 Build 0)  -->
<svg version="1.1" xmlns="http://www.w3.org/2000/svg" xmlns:xlink="http://www.w3.org/1999/xlink" x="0px" y="0px"
	 viewBox="0 0 1371.429 713.377" style="enable-background:new 0 0 1371.429 713.377;" xml:space="preserve">
<g id="_x38_00x800">
</g>
<g id="_x31_200x800">
	<g style="opacity:0.3;">
		
			<image style="overflow:visible;" width="494" height="774" xlink:href="3039EFC12F07397A.png"  transform="matrix(1 0 0 1 -8.1169 -60)">
		</image>
	</g>
	<g>
		<g style="opacity:0.6;">
			
				<image style="overflow:visible;" width="141" height="141" xlink:href="3039EFC12F07397E.png"  transform="matrix(1 0 0 1 169.8831 275)">
			</image>
		</g>
		<g>
			<linearGradient id="SVGID_1_" gradientUnits="userSpaceOnUse" x1="225.844" y1="313.6181" x2="252.4301" y2="374.0412">
				<stop  offset="0" style="stop-color:#ECECEC"/>
				<stop  offset="0.7919" style="stop-color:#C4C4C4"/>
				<stop  offset="1" style="stop-color:#D9D9D9"/>
			</linearGradient>
			<path style="fill:url(#SVGID_1_);" d="M205.337,344.09c0-18.655,15.187-33.775,33.915-33.775l0,0
				c18.73,0.001,33.913,15.121,33.914,33.775l0,0c-0.001,18.655-15.184,33.775-33.914,33.775l0,0
				C220.524,377.865,205.337,362.744,205.337,344.09L205.337,344.09z M216.657,321.585c-5.787,5.762-9.36,13.711-9.36,22.505l0,0
				c0,8.791,3.574,16.743,9.36,22.504l0,0c5.784,5.762,13.768,9.322,22.596,9.322l0,0c8.828,0,16.809-3.56,22.596-9.322l0,0
				c5.783-5.761,9.36-13.713,9.36-22.504l0,0c0-8.793-3.578-16.743-9.36-22.505l0,0c-5.787-5.761-13.768-9.321-22.596-9.321l0,0
				C230.424,312.264,222.441,315.824,216.657,321.585L216.657,321.585z"/>
		</g>
		<path style="fill:#FFFFFF;" d="M262.562,322.296c-0.12-0.118-0.24-0.235-0.361-0.352c5.576,5.732,9.007,13.535,9.007,22.146
			c0,8.791-3.578,16.743-9.36,22.504c-5.787,5.762-13.768,9.322-22.596,9.322c-8.646,0-16.48-3.418-22.235-8.97
			c0.117,0.119,0.234,0.239,0.352,0.359c5.785,5.762,13.769,9.321,22.597,9.321c8.828,0,16.812-3.559,22.596-9.321
			c5.784-5.761,9.36-13.713,9.36-22.505C271.922,336.008,268.346,328.059,262.562,322.296z M239.967,311.026
			c9.184,0,17.513,3.636,23.619,9.542c-6.164-6.324-14.787-10.254-24.333-10.254c-18.729,0.001-33.915,15.121-33.915,33.775
			c0,9.507,3.947,18.095,10.294,24.234c-5.927-6.082-9.579-14.375-9.581-23.523C206.051,326.145,221.235,311.026,239.967,311.026z"
			/>
	</g>
	<linearGradient id="SVGID_2_" gradientUnits="userSpaceOnUse" x1="93.2496" y1="510.8676" x2="386.9621" y2="510.8676">
		<stop  offset="0" style="stop-color:#E7E7E7"/>
		<stop  offset="0.2792" style="stop-color:#DDDDDD"/>
		<stop  offset="0.6396" style="stop-color:#969696"/>
		<stop  offset="1" style="stop-color:#B0B0B0"/>
	</linearGradient>
	<path style="fill:url(#SVGID_2_);" d="M240.107,657.123c-80.977,0-146.858-65.611-146.858-146.255
		c0-80.645,65.88-146.257,146.858-146.257c80.976,0,146.855,65.611,146.855,146.257
		C386.962,591.512,321.083,657.123,240.107,657.123z"/>
	<g>
		
			<radialGradient id="SVGID_3_" cx="292.5059" cy="438.9802" r="96.4395" gradientTransform="matrix(1.3594 0 0 1.3538 -157.5179 -83.4323)" gradientUnits="userSpaceOnUse">
			<stop  offset="0.1798" style="stop-color:#F2F2F2"/>
			<stop  offset="0.5899" style="stop-color:#D9D9D9"/>
			<stop  offset="1" style="stop-color:#939393"/>
		</radialGradient>
		<path style="fill:url(#SVGID_3_);" d="M240.107,641.429c-72.289,0-131.097-58.57-131.097-130.56
			c0-71.993,58.809-130.563,131.097-130.563c72.288,0,131.097,58.57,131.097,130.563
			C371.204,582.859,312.396,641.429,240.107,641.429z"/>
		
			<linearGradient id="SVGID_4_" gradientUnits="userSpaceOnUse" x1="155.8283" y1="469.5208" x2="384.766" y2="469.5208" gradientTransform="matrix(1.1797 0 0 1.1769 -78.759 -41.7161)">
			<stop  offset="0" style="stop-color:#ECEDED"/>
			<stop  offset="0.1798" style="stop-color:#EAEBEC"/>
			<stop  offset="0.2792" style="stop-color:#E6E6E8"/>
			<stop  offset="0.5899" style="stop-color:#C5C6C8"/>
			<stop  offset="0.6396" style="stop-color:#BDBFC1"/>
			<stop  offset="1" style="stop-color:#A2A2A2"/>
		</linearGradient>
		<path style="fill:url(#SVGID_4_);" d="M240.107,645.353c-74.522,0-135.037-60.269-135.037-134.484
			c0-74.218,60.515-134.487,135.037-134.487c74.521,0,135.037,60.269,135.037,134.487
			C375.145,585.083,314.629,645.353,240.107,645.353z"/>
		<linearGradient id="SVGID_5_" gradientUnits="userSpaceOnUse" x1="101.1297" y1="510.8672" x2="379.0847" y2="510.8672">
			<stop  offset="0" style="stop-color:#E7E7E7"/>
			<stop  offset="0.2792" style="stop-color:#DDDDDD"/>
			<stop  offset="0.6396" style="stop-color:#969696"/>
			<stop  offset="1" style="stop-color:#B0B0B0"/>
		</linearGradient>
		<ellipse style="fill:url(#SVGID_5_);" cx="240.107" cy="510.868" rx="138.977" ry="138.409"/>
		
			<radialGradient id="SVGID_6_" cx="270.2969" cy="469.5209" r="111.0331" gradientTransform="matrix(1.1797 0 0 1.1769 -78.759 -41.7161)" gradientUnits="userSpaceOnUse">
			<stop  offset="0" style="stop-color:#ECEDED"/>
			<stop  offset="0.1798" style="stop-color:#EAEBEC"/>
			<stop  offset="0.2792" style="stop-color:#E6E6E8"/>
			<stop  offset="0.5899" style="stop-color:#C5C6C8"/>
			<stop  offset="0.6396" style="stop-color:#BDBFC1"/>
			<stop  offset="1" style="stop-color:#A2A2A2"/>
		</radialGradient>
		<path style="fill:url(#SVGID_6_);" d="M240.107,641.429c-72.35,0-131.099-58.509-131.099-130.561
			c0-72.054,58.749-130.563,131.099-130.563c72.348,0,131.098,58.509,131.098,130.563
			C371.205,582.92,312.455,641.429,240.107,641.429z"/>
		
			<radialGradient id="SVGID_7_" cx="292.5054" cy="438.9804" r="90.6437" gradientTransform="matrix(1.3594 0 0 1.3538 -157.5179 -83.4323)" gradientUnits="userSpaceOnUse">
			<stop  offset="0.1798" style="stop-color:#F2F2F2"/>
			<stop  offset="0.5899" style="stop-color:#D9D9D9"/>
			<stop  offset="1" style="stop-color:#939393"/>
		</radialGradient>
		<path style="fill:url(#SVGID_7_);" d="M240.107,633.582c-67.944,0-123.22-55.049-123.22-122.714
			c0-67.666,55.276-122.716,123.22-122.716c67.942,0,123.218,55.05,123.218,122.716
			C363.326,578.533,308.049,633.582,240.107,633.582z"/>
		
			<radialGradient id="SVGID_8_" cx="292.5057" cy="438.9804" r="86.6349" gradientTransform="matrix(1.3594 0 0 1.3538 -157.5179 -83.4323)" gradientUnits="userSpaceOnUse">
			<stop  offset="0.1798" style="stop-color:#D8D9DB"/>
			<stop  offset="0.5899" style="stop-color:#CED0D1"/>
			<stop  offset="1" style="stop-color:#939393"/>
		</radialGradient>
		<path style="fill:url(#SVGID_8_);" d="M240.107,629.659c-65.771,0-119.28-53.289-119.28-118.79
			c0-65.502,53.509-118.792,119.28-118.792c65.77,0,119.279,53.29,119.279,118.792C359.386,576.37,305.878,629.659,240.107,629.659z
			"/>
		
			<radialGradient id="SVGID_9_" cx="292.5059" cy="438.9804" r="82.6995" gradientTransform="matrix(1.3594 0 0 1.3538 -157.5179 -83.4323)" gradientUnits="userSpaceOnUse">
			<stop  offset="0.5899" style="stop-color:#B7B7B7"/>
			<stop  offset="1" style="stop-color:#939393"/>
		</radialGradient>
		<path style="fill:url(#SVGID_9_);" d="M240.107,625.736c-63.599,0-115.34-51.53-115.34-114.867
			c0-63.339,51.741-114.869,115.34-114.869c63.598,0,115.34,51.53,115.34,114.869C355.447,574.206,303.706,625.736,240.107,625.736z
			"/>
	</g>
	
		<radialGradient id="SVGID_10_" cx="292.506" cy="438.9809" r="77.0496" gradientTransform="matrix(1.3594 0 0 1.3538 -157.5179 -83.4323)" gradientUnits="userSpaceOnUse">
		<stop  offset="0.5899" style="stop-color:#B1B1B1"/>
		<stop  offset="1" style="stop-color:#939393"/>
	</radialGradient>
	<path style="fill:url(#SVGID_10_);" d="M240.107,617.889c-59.255,0-107.46-48.009-107.46-107.02
		c0-59.013,48.205-107.021,107.46-107.021c59.254,0,107.46,48.008,107.46,107.021C347.567,569.88,299.361,617.889,240.107,617.889z"
		/>
	
		<radialGradient id="SVGID_11_" cx="292.5065" cy="438.9806" r="76.1533" gradientTransform="matrix(1.3594 0 0 1.3538 -157.5179 -83.4323)" gradientUnits="userSpaceOnUse">
		<stop  offset="0.5846" style="stop-color:#939393"/>
		<stop  offset="1" style="stop-color:#939393"/>
	</radialGradient>
	<path style="fill:url(#SVGID_11_);stroke:#C1C1C1;stroke-width:0.5796;stroke-miterlimit:10;" d="M240.107,613.965
		c-57.081,0-103.521-46.248-103.521-103.096s46.44-103.098,103.521-103.098c57.082,0,103.522,46.249,103.522,103.098
		S297.189,613.965,240.107,613.965z"/>
	<linearGradient id="SVGID_12_" gradientUnits="userSpaceOnUse" x1="114.4128" y1="510.6613" x2="366.8051" y2="510.6613">
		<stop  offset="0" style="stop-color:#E7E7E7"/>
		<stop  offset="0.2792" style="stop-color:#DDDDDD"/>
		<stop  offset="0.6396" style="stop-color:#969696"/>
		<stop  offset="1" style="stop-color:#B0B0B0"/>
	</linearGradient>
	<ellipse style="fill:url(#SVGID_12_);" cx="240.608" cy="510.66" rx="126.196" ry="125.681"/>
	<path style="display:none;opacity:0.1;fill:#FFFFFF;" d="M150.371,599.746c-49.284-49.083-49.284-128.66,0-177.74
		c49.281-49.081,129.186-49.082,178.47,0"/>
	<g>
		<g>
			<g style="opacity:0.6;">
				
					<image style="overflow:visible;" width="110" height="109" xlink:href="3039EFC12F073979.png"  transform="matrix(1 0 0 1 139.4319 523.6537)">
				</image>
			</g>
			<g>
				<linearGradient id="SVGID_13_" gradientUnits="userSpaceOnUse" x1="186.8201" y1="561.0765" x2="201.1062" y2="593.545">
					<stop  offset="0" style="stop-color:#ECECEC"/>
					<stop  offset="0.7919" style="stop-color:#C4C4C4"/>
					<stop  offset="1" style="stop-color:#D9D9D9"/>
				</linearGradient>
				<path style="fill:url(#SVGID_13_);" d="M175.799,577.45c0-10.024,8.162-18.148,18.224-18.148l0,0
					c10.067,0,18.227,8.124,18.227,18.148l0,0c0,10.025-8.16,18.15-18.227,18.15l0,0C183.961,595.6,175.799,587.476,175.799,577.45
					L175.799,577.45z M181.882,565.357c-3.109,3.096-5.03,7.368-5.03,12.093l0,0c0,4.724,1.921,8.997,5.03,12.093l0,0
					c3.109,3.096,7.399,5.011,12.141,5.011l0,0c4.745,0,9.035-1.914,12.144-5.011l0,0c3.106-3.096,5.029-7.369,5.029-12.093l0,0
					c0-4.725-1.922-8.997-5.029-12.093l0,0c-3.109-3.095-7.399-5.008-12.144-5.009l0,0
					C189.281,560.349,184.991,562.262,181.882,565.357L181.882,565.357z"/>
			</g>
			<path style="fill:#FFFFFF;" d="M206.55,565.74c-0.064-0.065-0.128-0.127-0.194-0.19c2.998,3.081,4.84,7.274,4.84,11.9
				c0,4.724-1.922,8.997-5.029,12.093c-3.109,3.096-7.399,5.011-12.144,5.011c-4.644,0-8.855-1.836-11.945-4.82
				c0.061,0.063,0.123,0.128,0.189,0.192c3.106,3.095,7.397,5.011,12.141,5.011c4.745,0,9.034-1.916,12.142-5.011
				c3.109-3.095,5.031-7.368,5.031-12.093C211.581,573.109,209.659,568.836,206.55,565.74z M194.408,559.683
				c4.936,0,9.411,1.954,12.694,5.128c-3.313-3.398-7.946-5.509-13.079-5.509c-10.062,0-18.224,8.124-18.224,18.148
				c0,5.11,2.121,9.725,5.533,13.023c-3.186-3.267-5.148-7.724-5.148-12.64C176.184,567.808,184.343,559.683,194.408,559.683z"/>
		</g>
		<g>
			<g style="opacity:0.6;">
				
					<image style="overflow:visible;" width="110" height="109" xlink:href="3039EFC12F07397B.png"  transform="matrix(1 0 0 1 182.4319 523.6537)">
				</image>
			</g>
			<g>
				<linearGradient id="SVGID_14_" gradientUnits="userSpaceOnUse" x1="229.554" y1="561.0766" x2="243.8402" y2="593.5452">
					<stop  offset="0" style="stop-color:#ECECEC"/>
					<stop  offset="0.7919" style="stop-color:#C4C4C4"/>
					<stop  offset="1" style="stop-color:#D9D9D9"/>
				</linearGradient>
				<path style="fill:url(#SVGID_14_);" d="M218.535,577.45c0-10.024,8.159-18.148,18.224-18.148l0,0
					c10.065,0,18.224,8.124,18.224,18.148l0,0c0,10.025-8.159,18.15-18.224,18.15l0,0C226.693,595.6,218.535,587.476,218.535,577.45
					L218.535,577.45z M224.617,565.358c-3.11,3.095-5.031,7.367-5.031,12.092l0,0c0,4.724,1.921,8.997,5.031,12.093l0,0
					c3.106,3.096,7.398,5.011,12.141,5.011l0,0c4.745,0,9.032-1.914,12.143-5.011l0,0c3.108-3.096,5.027-7.369,5.027-12.093l0,0
					c0-4.725-1.92-8.997-5.027-12.092l0,0c-3.11-3.096-7.398-5.009-12.143-5.009l0,0
					C232.015,560.349,227.723,562.262,224.617,565.358L224.617,565.358z"/>
			</g>
			<path style="fill:#FFFFFF;" d="M249.285,565.74c-0.065-0.065-0.13-0.127-0.194-0.19c2.995,3.081,4.837,7.274,4.837,11.9
				c0,4.724-1.92,8.997-5.027,12.093c-3.11,3.096-7.398,5.011-12.143,5.011c-4.646,0-8.857-1.836-11.948-4.82
				c0.061,0.063,0.125,0.128,0.188,0.192c3.108,3.095,7.398,5.011,12.143,5.011c4.743,0,9.033-1.916,12.143-5.011
				c3.108-3.095,5.029-7.368,5.029-12.093C254.314,573.109,252.393,568.837,249.285,565.74z M237.142,559.683
				c4.934,0,9.411,1.954,12.692,5.128c-3.311-3.398-7.946-5.509-13.076-5.509c-10.065,0-18.224,8.124-18.224,18.148
				c0,5.11,2.119,9.725,5.53,13.023c-3.186-3.267-5.148-7.724-5.148-12.64C218.917,567.808,227.076,559.683,237.142,559.683z"/>
		</g>
		<g>
			<g style="opacity:0.6;">
				
					<image style="overflow:visible;" width="109" height="109" xlink:href="3039EFC12F073978.png"  transform="matrix(1 0 0 1 225.4319 523.6537)">
				</image>
			</g>
			<g>
				<linearGradient id="SVGID_15_" gradientUnits="userSpaceOnUse" x1="272.2875" y1="561.0767" x2="286.5735" y2="593.545">
					<stop  offset="0" style="stop-color:#ECECEC"/>
					<stop  offset="0.7919" style="stop-color:#C4C4C4"/>
					<stop  offset="1" style="stop-color:#D9D9D9"/>
				</linearGradient>
				<path style="fill:url(#SVGID_15_);" d="M261.267,577.45c0-10.024,8.162-18.148,18.224-18.148l0,0
					c10.065,0,18.224,8.124,18.227,18.148l0,0c-0.003,10.025-8.162,18.15-18.227,18.15l0,0
					C269.429,595.6,261.267,587.476,261.267,577.45L261.267,577.45z M267.35,565.358c-3.11,3.095-5.031,7.367-5.031,12.092l0,0
					c0,4.724,1.921,8.997,5.031,12.093l0,0c3.109,3.096,7.4,5.011,12.142,5.011l0,0c4.744,0,9.034-1.914,12.141-5.011l0,0
					c3.109-3.096,5.03-7.369,5.03-12.093l0,0c0-4.725-1.921-8.997-5.03-12.092l0,0c-3.108-3.096-7.397-5.009-12.141-5.009l0,0
					C274.749,560.349,270.459,562.262,267.35,565.358L267.35,565.358z"/>
			</g>
			<path style="fill:#FFFFFF;" d="M292.018,565.74c-0.064-0.065-0.127-0.127-0.194-0.19c2.995,3.081,4.839,7.274,4.839,11.9
				c0,4.724-1.921,8.997-5.03,12.093c-3.108,3.096-7.397,5.011-12.141,5.011c-4.645,0-8.856-1.836-11.948-4.82
				c0.064,0.063,0.126,0.128,0.19,0.192c3.108,3.095,7.398,5.011,12.143,5.011c4.743,0,9.032-1.916,12.141-5.011
				c3.109-3.095,5.031-7.368,5.031-12.093C297.049,573.109,295.127,568.837,292.018,565.74z M279.876,559.683
				c4.936,0,9.409,1.954,12.691,5.128c-3.311-3.398-7.945-5.509-13.076-5.509c-10.063,0-18.224,8.124-18.224,18.148
				c0,5.11,2.12,9.725,5.532,13.023c-3.186-3.267-5.148-7.724-5.149-12.64C261.651,567.808,269.811,559.683,279.876,559.683z"/>
		</g>
		<g>
			<g style="opacity:0.6;">
				
					<image style="overflow:visible;" width="109" height="110" xlink:href="3039EFC12F073986.png"  transform="matrix(1 0 0 1 161.4319 536.6537)">
				</image>
			</g>
			<g>
				<linearGradient id="SVGID_16_" gradientUnits="userSpaceOnUse" x1="207.852" y1="574.5025" x2="222.1381" y2="606.971">
					<stop  offset="0" style="stop-color:#ECECEC"/>
					<stop  offset="0.7919" style="stop-color:#C4C4C4"/>
					<stop  offset="1" style="stop-color:#D9D9D9"/>
				</linearGradient>
				<path style="fill:url(#SVGID_16_);" d="M196.832,590.876c0-10.023,8.159-18.148,18.224-18.148l0,0
					c10.065,0,18.224,8.125,18.225,18.148l0,0c-0.001,10.025-8.16,18.15-18.225,18.15l0,0
					C204.991,609.026,196.832,600.901,196.832,590.876L196.832,590.876z M202.915,578.784c-3.109,3.098-5.03,7.368-5.03,12.092l0,0
					c0,4.724,1.921,8.998,5.03,12.094l0,0c3.108,3.096,7.398,5.009,12.142,5.009l0,0c4.744,0,9.032-1.913,12.143-5.009l0,0
					c3.108-3.096,5.03-7.371,5.03-12.094l0,0c0-4.724-1.922-8.994-5.03-12.092l0,0c-3.11-3.096-7.398-5.009-12.143-5.009l0,0
					C210.313,573.775,206.023,575.688,202.915,578.784L202.915,578.784z"/>
			</g>
			<path style="fill:#FFFFFF;" d="M227.583,579.166c-0.064-0.063-0.13-0.126-0.194-0.189c2.995,3.081,4.84,7.273,4.84,11.899
				c0,4.724-1.922,8.998-5.03,12.094c-3.11,3.096-7.398,5.009-12.143,5.009c-4.646,0-8.856-1.838-11.948-4.82
				c0.062,0.062,0.125,0.13,0.189,0.193c3.109,3.095,7.399,5.008,12.143,5.008s9.034-1.913,12.143-5.008
				c3.108-3.098,5.029-7.369,5.029-12.093C232.611,586.534,230.69,582.263,227.583,579.166z M215.44,573.111
				c4.936,0,9.411,1.953,12.692,5.124c-3.311-3.396-7.947-5.508-13.076-5.508c-10.065,0-18.224,8.125-18.224,18.148
				c0,5.111,2.121,9.725,5.53,13.024c-3.185-3.267-5.148-7.724-5.148-12.641C197.215,581.234,205.375,573.111,215.44,573.111z"/>
		</g>
		<g>
			<g style="opacity:0.6;">
				
					<image style="overflow:visible;" width="110" height="109" xlink:href="3039EFC12F073989.png"  transform="matrix(1 0 0 1 203.4319 537.6537)">
				</image>
			</g>
			<g>
				<linearGradient id="SVGID_17_" gradientUnits="userSpaceOnUse" x1="250.8198" y1="574.9042" x2="265.1064" y2="607.374">
					<stop  offset="0" style="stop-color:#ECECEC"/>
					<stop  offset="0.7919" style="stop-color:#C4C4C4"/>
					<stop  offset="1" style="stop-color:#D9D9D9"/>
				</linearGradient>
				<path style="fill:url(#SVGID_17_);" d="M239.799,591.277c0-10.023,8.162-18.147,18.226-18.147l0,0
					c10.066,0,18.225,8.124,18.225,18.147l0,0c0,10.027-8.159,18.152-18.225,18.152l0,0
					C247.96,609.429,239.799,601.303,239.799,591.277L239.799,591.277z M245.883,579.185c-3.11,3.096-5.03,7.368-5.03,12.092l0,0
					c0,4.725,1.92,8.998,5.03,12.093l0,0c3.108,3.098,7.398,5.011,12.142,5.011l0,0c4.745,0,9.034-1.913,12.143-5.011l0,0
					c3.108-3.095,5.029-7.368,5.029-12.093l0,0c0-4.724-1.921-8.995-5.029-12.092l0,0c-3.109-3.095-7.398-5.008-12.143-5.009l0,0
					C253.281,574.177,248.99,576.09,245.883,579.185L245.883,579.185z"/>
			</g>
			<path style="fill:#FFFFFF;" d="M270.552,579.567c-0.065-0.063-0.13-0.125-0.195-0.189c2.996,3.079,4.839,7.273,4.839,11.899
				c0,4.725-1.921,8.998-5.029,12.093c-3.109,3.098-7.398,5.011-12.143,5.011c-4.645,0-8.855-1.836-11.948-4.819
				c0.062,0.063,0.126,0.128,0.19,0.192c3.109,3.095,7.399,5.008,12.143,5.008c4.743,0,9.034-1.913,12.143-5.008
				c3.106-3.096,5.029-7.368,5.029-12.093C275.58,586.936,273.658,582.663,270.552,579.567z M258.409,573.509
				c4.936,0,9.411,1.954,12.691,5.128c-3.311-3.398-7.945-5.508-13.076-5.508c-10.064,0-18.226,8.124-18.226,18.147
				c0,5.111,2.123,9.727,5.533,13.023c-3.186-3.267-5.148-7.724-5.148-12.639C240.183,581.635,248.342,573.509,258.409,573.509z"/>
		</g>
	</g>
	<g>
		<polyline style="fill:#EAEA1F;" points="224.615,326.407 210.177,341.262 29.709,-25.971 63.225,-34.669 		"/>
		<polyline style="fill:#39B54A;" points="63.225,-34.669 97.005,-43.438 237.366,312.555 224.615,326.407 		"/>
		
			<image style="overflow:visible;opacity:0.5;" width="208" height="389" xlink:href="3039EFC12F07398A.png"  transform="matrix(1 0 0 1 28.8831 -44)">
		</image>
	</g>
	<g>
		<polyline style="fill:#EAEA1F;" points="255.198,326.407 269.636,341.262 450.105,-25.971 416.59,-34.669 		"/>
		<polyline style="fill:#39B54A;" points="416.59,-34.669 382.81,-43.438 242.449,312.555 255.198,326.407 		"/>
		
			<image style="overflow:visible;opacity:0.5;" width="209" height="389" xlink:href="3039EFC12F073988.png"  transform="matrix(1 0 0 1 240.8831 -44)">
		</image>
	</g>
	<g style="opacity:0.3;">
		
			<image style="overflow:visible;" width="494" height="777" xlink:href="F85FA6EBCC0B4EFD.png"  transform="matrix(1 0 0 1 882.8831 -56)">
		</image>
	</g>
	<g>
		<g style="opacity:0.6;">
			
				<image style="overflow:visible;" width="140" height="141" xlink:href="F85FA6EBCC0B4EF3.png"  transform="matrix(1 0 0 1 1060.8831 284)">
			</image>
		</g>
		<g>
			<linearGradient id="SVGID_18_" gradientUnits="userSpaceOnUse" x1="1116.2882" y1="322.4165" x2="1142.9846" y2="383.0907">
				<stop  offset="0" style="stop-color:#EBA978"/>
				<stop  offset="0.7919" style="stop-color:#E07B30"/>
				<stop  offset="1" style="stop-color:#E38B2F"/>
			</linearGradient>
			<path style="fill:url(#SVGID_18_);" d="M1095.837,353.015c0-18.747,15.186-33.942,33.916-33.943l0,0
				c18.73,0.001,33.913,15.196,33.914,33.943l0,0c-0.001,18.747-15.184,33.943-33.914,33.943l0,0
				C1111.022,386.958,1095.837,371.762,1095.837,353.015L1095.837,353.015z M1107.155,330.398c-5.786,5.791-9.36,13.78-9.36,22.616
				l0,0c0,8.835,3.574,16.827,9.36,22.617l0,0c5.784,5.789,13.77,9.368,22.597,9.368l0,0c8.828,0,16.81-3.579,22.596-9.368l0,0
				c5.783-5.79,9.36-13.781,9.36-22.617l0,0c0-8.837-3.577-16.826-9.36-22.616l0,0c-5.786-5.789-13.767-9.367-22.596-9.367l0,0
				C1120.925,321.031,1112.94,324.609,1107.155,330.398L1107.155,330.398z"/>
		</g>
		<path style="fill:#F4C9D0;" d="M1153.061,331.113c-0.118-0.118-0.239-0.235-0.36-0.354c5.576,5.761,9.007,13.602,9.007,22.256
			c0,8.835-3.577,16.827-9.36,22.617c-5.786,5.789-13.767,9.368-22.596,9.368c-8.646,0-16.481-3.435-22.235-9.015
			c0.118,0.12,0.233,0.241,0.353,0.361c5.784,5.79,13.769,9.367,22.596,9.367s16.811-3.577,22.596-9.367
			c5.787-5.79,9.361-13.782,9.361-22.616C1162.422,344.894,1158.848,336.904,1153.061,331.113z M1130.465,319.787
			c9.186,0,17.513,3.654,23.62,9.589c-6.163-6.356-14.786-10.304-24.333-10.304c-18.73,0.001-33.916,15.196-33.916,33.943
			c0,9.554,3.947,18.186,10.293,24.355c-5.926-6.112-9.579-14.447-9.58-23.64C1096.551,334.981,1111.735,319.787,1130.465,319.787z"
			/>
	</g>
	<linearGradient id="SVGID_19_" gradientUnits="userSpaceOnUse" x1="983.7496" y1="520.6224" x2="1277.4635" y2="520.6224">
		<stop  offset="0" style="stop-color:#E89F63"/>
		<stop  offset="0.2792" style="stop-color:#E69254"/>
		<stop  offset="0.6396" style="stop-color:#D95729"/>
		<stop  offset="1" style="stop-color:#DD6A2A"/>
	</linearGradient>
	<path style="fill:url(#SVGID_19_);" d="M1130.606,667.605c-80.977,0-146.857-65.937-146.857-146.983s65.88-146.982,146.857-146.982
		c80.978,0,146.857,65.936,146.857,146.982S1211.584,667.605,1130.606,667.605z"/>
	<g>
		
			<radialGradient id="SVGID_20_" cx="1091.6802" cy="451.9178" r="98.757" gradientTransform="matrix(1.3275 0 0 1.3286 -318.5813 -79.808)" gradientUnits="userSpaceOnUse">
			<stop  offset="0.1798" style="stop-color:#EFB4B5"/>
			<stop  offset="0.5899" style="stop-color:#E99B7C"/>
			<stop  offset="1" style="stop-color:#D95427"/>
		</radialGradient>
		<path style="fill:url(#SVGID_20_);" d="M1130.606,651.833c-72.288,0-131.097-58.86-131.097-131.211
			c0-72.351,58.809-131.212,131.097-131.212c72.288,0,131.1,58.86,131.1,131.212
			C1261.706,592.973,1202.895,651.833,1130.606,651.833z"/>
		
			<linearGradient id="SVGID_21_" gradientUnits="userSpaceOnUse" x1="992.3677" y1="481.4219" x2="1224.443" y2="481.4219" gradientTransform="matrix(1.1637 0 0 1.1643 -159.2906 -39.904)">
			<stop  offset="0" style="stop-color:#ECAA8C"/>
			<stop  offset="0.1798" style="stop-color:#EBA688"/>
			<stop  offset="0.2792" style="stop-color:#EAA07E"/>
			<stop  offset="0.5899" style="stop-color:#E27D56"/>
			<stop  offset="0.6396" style="stop-color:#E0754E"/>
			<stop  offset="1" style="stop-color:#DB5F29"/>
		</linearGradient>
		<path style="fill:url(#SVGID_21_);" d="M1130.606,655.776c-74.521,0-135.037-60.568-135.037-135.154
			c0-74.587,60.515-135.155,135.037-135.155c74.522,0,135.039,60.568,135.039,135.155
			C1265.646,595.208,1205.128,655.776,1130.606,655.776z"/>
		<linearGradient id="SVGID_22_" gradientUnits="userSpaceOnUse" x1="991.6302" y1="520.6218" x2="1269.5853" y2="520.6218">
			<stop  offset="0" style="stop-color:#E89F63"/>
			<stop  offset="0.2792" style="stop-color:#E69254"/>
			<stop  offset="0.6396" style="stop-color:#D95729"/>
			<stop  offset="1" style="stop-color:#DD6A2A"/>
		</linearGradient>
		<ellipse style="fill:url(#SVGID_22_);" cx="1130.607" cy="520.622" rx="138.978" ry="139.097"/>
		
			<radialGradient id="SVGID_23_" cx="1108.4052" cy="481.422" r="112.6733" gradientTransform="matrix(1.1637 0 0 1.1643 -159.2906 -39.904)" gradientUnits="userSpaceOnUse">
			<stop  offset="0" style="stop-color:#ECAA8C"/>
			<stop  offset="0.1798" style="stop-color:#EBA688"/>
			<stop  offset="0.2792" style="stop-color:#EAA07E"/>
			<stop  offset="0.5899" style="stop-color:#E27D56"/>
			<stop  offset="0.6396" style="stop-color:#E0754E"/>
			<stop  offset="1" style="stop-color:#DB5F29"/>
		</radialGradient>
		<path style="fill:url(#SVGID_23_);" d="M1130.606,651.833c-72.349,0-131.098-58.8-131.098-131.211
			c0-72.412,58.749-131.211,131.098-131.211c72.349,0,131.1,58.8,131.1,131.211C1261.706,593.034,1202.956,651.833,1130.606,651.833
			z"/>
		
			<radialGradient id="SVGID_24_" cx="1091.6797" cy="451.918" r="92.8215" gradientTransform="matrix(1.3275 0 0 1.3286 -318.5813 -79.808)" gradientUnits="userSpaceOnUse">
			<stop  offset="0.1798" style="stop-color:#EFB4B5"/>
			<stop  offset="0.5899" style="stop-color:#E99B7C"/>
			<stop  offset="1" style="stop-color:#D95427"/>
		</radialGradient>
		<path style="fill:url(#SVGID_24_);" d="M1130.606,643.947c-67.943,0-123.219-55.324-123.219-123.325
			s55.276-123.325,123.219-123.325c67.943,0,123.22,55.324,123.22,123.325S1198.549,643.947,1130.606,643.947z"/>
		
			<radialGradient id="SVGID_25_" cx="1091.6797" cy="451.9183" r="88.7165" gradientTransform="matrix(1.3275 0 0 1.3286 -318.5813 -79.808)" gradientUnits="userSpaceOnUse">
			<stop  offset="0.1798" style="stop-color:#E89681"/>
			<stop  offset="0.5899" style="stop-color:#E58A64"/>
			<stop  offset="1" style="stop-color:#D95427"/>
		</radialGradient>
		<path style="fill:url(#SVGID_25_);" d="M1130.606,640.005c-65.77,0-119.279-53.554-119.279-119.382
			c0-65.827,53.509-119.382,119.279-119.382c65.771,0,119.281,53.555,119.281,119.382
			C1249.887,586.45,1196.377,640.005,1130.606,640.005z"/>
		
			<radialGradient id="SVGID_26_" cx="1091.6797" cy="451.9185" r="84.6865" gradientTransform="matrix(1.3275 0 0 1.3286 -318.5813 -79.808)" gradientUnits="userSpaceOnUse">
			<stop  offset="0.5899" style="stop-color:#E1784C"/>
			<stop  offset="1" style="stop-color:#D95427"/>
		</radialGradient>
		<path style="fill:url(#SVGID_26_);" d="M1130.606,636.062c-63.597,0-115.339-51.785-115.339-115.44
			c0-63.653,51.742-115.439,115.339-115.439c63.599,0,115.341,51.786,115.341,115.439
			C1245.947,584.277,1194.205,636.062,1130.606,636.062z"/>
	</g>
	
		<radialGradient id="SVGID_27_" cx="1091.6792" cy="451.9178" r="78.9009" gradientTransform="matrix(1.3275 0 0 1.3286 -318.5813 -79.808)" gradientUnits="userSpaceOnUse">
		<stop  offset="0.5899" style="stop-color:#DD693D"/>
		<stop  offset="1" style="stop-color:#D95427"/>
	</radialGradient>
	<path style="fill:url(#SVGID_27_);" d="M1130.606,628.175c-59.253,0-107.46-48.248-107.46-107.553
		c0-59.306,48.207-107.553,107.46-107.553c59.256,0,107.46,48.248,107.46,107.553
		C1238.067,579.926,1189.862,628.175,1130.606,628.175z"/>
	
		<radialGradient id="SVGID_28_" cx="1091.6797" cy="451.9178" r="77.9828" gradientTransform="matrix(1.3275 0 0 1.3286 -318.5813 -79.808)" gradientUnits="userSpaceOnUse">
		<stop  offset="0.5846" style="stop-color:#D95427"/>
		<stop  offset="1" style="stop-color:#D95427"/>
	</radialGradient>
	<path style="fill:url(#SVGID_28_);stroke:#DF743A;stroke-width:0.5935;stroke-miterlimit:10;" d="M1130.606,624.232
		c-57.081,0-103.521-46.477-103.521-103.609c0-57.131,46.44-103.61,103.521-103.61c57.082,0,103.522,46.479,103.522,103.61
		C1234.128,577.754,1187.688,624.232,1130.606,624.232z"/>
	<linearGradient id="SVGID_29_" gradientUnits="userSpaceOnUse" x1="1004.9116" y1="520.4139" x2="1257.3048" y2="520.4139">
		<stop  offset="0" style="stop-color:#E89F63"/>
		<stop  offset="0.2792" style="stop-color:#E69254"/>
		<stop  offset="0.6396" style="stop-color:#D95729"/>
		<stop  offset="1" style="stop-color:#DD6A2A"/>
	</linearGradient>
	<ellipse style="fill:url(#SVGID_29_);" cx="1131.108" cy="520.414" rx="126.197" ry="126.306"/>
	<g>
		<g>
			<g style="opacity:0.6;">
				
					<image style="overflow:visible;" width="109" height="109" xlink:href="F85FA6EBCC0B4EF5.png"  transform="matrix(1 0 0 1 1033.6582 532.9976)">
				</image>
			</g>
			<g>
				<linearGradient id="SVGID_30_" gradientUnits="userSpaceOnUse" x1="1080.5162" y1="570.2697" x2="1094.8621" y2="602.8739">
					<stop  offset="0" style="stop-color:#EBA978"/>
					<stop  offset="0.7919" style="stop-color:#E07B30"/>
					<stop  offset="1" style="stop-color:#E38B2F"/>
				</linearGradient>
				<path style="fill:url(#SVGID_30_);" d="M1069.526,586.712c0-10.075,8.158-18.239,18.224-18.239l0,0
					c10.065,0,18.224,8.164,18.224,18.239l0,0c0,10.074-8.159,18.24-18.224,18.24l0,0
					C1077.685,604.952,1069.526,596.786,1069.526,586.712L1069.526,586.712z M1075.608,574.559c-3.109,3.113-5.03,7.406-5.03,12.153
					l0,0c0,4.748,1.921,9.042,5.03,12.152l0,0c3.11,3.111,7.398,5.036,12.143,5.036l0,0c4.743,0,9.032-1.924,12.142-5.036l0,0
					c3.108-3.11,5.03-7.405,5.03-12.152l0,0c0-4.747-1.922-9.041-5.03-12.153l0,0c-3.11-3.11-7.398-5.033-12.142-5.034l0,0
					C1083.006,569.526,1078.718,571.448,1075.608,574.559L1075.608,574.559z"/>
			</g>
			<path style="fill:#F4C9D0;" d="M1100.276,574.944c-0.065-0.065-0.13-0.127-0.193-0.191c2.995,3.096,4.839,7.31,4.839,11.959
				c0,4.748-1.922,9.042-5.03,12.152c-3.11,3.111-7.398,5.036-12.142,5.036c-4.647,0-8.857-1.845-11.949-4.845
				c0.063,0.065,0.126,0.13,0.191,0.193c3.108,3.111,7.398,5.034,12.141,5.034c4.745,0,9.034-1.923,12.143-5.034
				c3.109-3.109,5.03-7.404,5.03-12.152C1105.306,582.349,1103.385,578.054,1100.276,574.944z M1088.133,568.856
				c4.935,0,9.413,1.964,12.693,5.154c-3.311-3.415-7.947-5.536-13.075-5.536c-10.066,0-18.224,8.164-18.224,18.239
				c0,5.136,2.121,9.773,5.532,13.088c-3.185-3.285-5.149-7.763-5.149-12.704C1069.909,577.023,1078.07,568.856,1088.133,568.856z"
				/>
		</g>
		<g>
			<g style="opacity:0.6;">
				
					<image style="overflow:visible;" width="109" height="109" xlink:href="F85FA6EBCC0B4EF7.png"  transform="matrix(1 0 0 1 1076.6582 532.9976)">
				</image>
			</g>
			<g>
				<linearGradient id="SVGID_31_" gradientUnits="userSpaceOnUse" x1="1123.2504" y1="570.2698" x2="1137.5962" y2="602.874">
					<stop  offset="0" style="stop-color:#EBA978"/>
					<stop  offset="0.7919" style="stop-color:#E07B30"/>
					<stop  offset="1" style="stop-color:#E38B2F"/>
				</linearGradient>
				<path style="fill:url(#SVGID_31_);" d="M1112.26,586.712c0-10.075,8.159-18.239,18.224-18.239l0,0
					c10.066,0,18.224,8.164,18.226,18.239l0,0c-0.001,10.074-8.159,18.24-18.226,18.24l0,0
					C1120.419,604.952,1112.26,596.786,1112.26,586.712L1112.26,586.712z M1118.343,574.56c-3.11,3.111-5.03,7.405-5.03,12.152l0,0
					c0,4.748,1.92,9.042,5.03,12.152l0,0c3.107,3.111,7.4,5.036,12.142,5.036l0,0c4.745,0,9.033-1.924,12.143-5.036l0,0
					c3.107-3.11,5.029-7.405,5.029-12.152l0,0c0-4.747-1.921-9.041-5.029-12.152l0,0c-3.11-3.111-7.398-5.034-12.143-5.034l0,0
					C1125.742,569.526,1121.45,571.448,1118.343,574.56L1118.343,574.56z"/>
			</g>
			<path style="fill:#F4C9D0;" d="M1143.011,574.944c-0.065-0.065-0.13-0.127-0.193-0.191c2.993,3.096,4.838,7.31,4.838,11.959
				c0,4.748-1.921,9.042-5.029,12.152c-3.11,3.111-7.398,5.036-12.143,5.036c-4.646,0-8.857-1.845-11.949-4.845
				c0.062,0.065,0.126,0.13,0.189,0.193c3.109,3.111,7.398,5.034,12.143,5.034c4.743,0,9.033-1.923,12.143-5.034
				c3.106-3.109,5.03-7.404,5.03-12.152C1148.041,582.349,1146.117,578.055,1143.011,574.944z M1130.868,568.856
				c4.935,0,9.412,1.964,12.693,5.154c-3.311-3.415-7.947-5.536-13.076-5.536c-10.065,0-18.224,8.164-18.224,18.239
				c0,5.136,2.12,9.773,5.53,13.088c-3.185-3.285-5.148-7.763-5.148-12.704C1112.643,577.023,1120.803,568.856,1130.868,568.856z"/>
		</g>
		<g>
			<g style="opacity:0.6;">
				
					<image style="overflow:visible;" width="110" height="109" xlink:href="F85FA6EBCC0B4EF4.png"  transform="matrix(1 0 0 1 1118.6582 532.9976)">
				</image>
			</g>
			<g>
				<linearGradient id="SVGID_32_" gradientUnits="userSpaceOnUse" x1="1165.9836" y1="570.2698" x2="1180.3293" y2="602.8739">
					<stop  offset="0" style="stop-color:#EBA978"/>
					<stop  offset="0.7919" style="stop-color:#E07B30"/>
					<stop  offset="1" style="stop-color:#E38B2F"/>
				</linearGradient>
				<path style="fill:url(#SVGID_32_);" d="M1154.992,586.712c0-10.075,8.161-18.239,18.226-18.239l0,0
					c10.065,0,18.224,8.164,18.227,18.239l0,0c-0.003,10.074-8.162,18.24-18.227,18.24l0,0
					C1163.153,604.952,1154.992,596.786,1154.992,586.712L1154.992,586.712z M1161.076,574.56c-3.111,3.111-5.03,7.405-5.03,12.152
					l0,0c0,4.748,1.919,9.042,5.03,12.152l0,0c3.109,3.111,7.398,5.036,12.142,5.036l0,0c4.745,0,9.034-1.924,12.141-5.036l0,0
					c3.11-3.11,5.031-7.405,5.031-12.152l0,0c0-4.747-1.921-9.041-5.031-12.152l0,0c-3.106-3.111-7.396-5.034-12.141-5.034l0,0
					C1168.475,569.526,1164.185,571.448,1161.076,574.56L1161.076,574.56z"/>
			</g>
			<path style="fill:#F4C9D0;" d="M1185.745,574.944c-0.065-0.065-0.13-0.127-0.196-0.191c2.999,3.096,4.841,7.31,4.841,11.959
				c0,4.748-1.921,9.042-5.031,12.152c-3.106,3.111-7.396,5.036-12.141,5.036c-4.645,0-8.857-1.845-11.949-4.845
				c0.063,0.065,0.126,0.13,0.19,0.193c3.109,3.111,7.399,5.034,12.142,5.034c4.746,0,9.033-1.923,12.143-5.034
				c3.107-3.109,5.029-7.404,5.029-12.152C1190.774,582.349,1188.852,578.055,1185.745,574.944z M1173.602,568.856
				c4.935,0,9.41,1.964,12.693,5.154c-3.312-3.415-7.945-5.536-13.077-5.536c-10.065,0-18.226,8.164-18.226,18.239
				c0,5.136,2.122,9.773,5.534,13.088c-3.188-3.285-5.149-7.763-5.151-12.704C1155.377,577.023,1163.536,568.856,1173.602,568.856z"
				/>
		</g>
		<g>
			<g style="opacity:0.6;">
				
					<image style="overflow:visible;" width="109" height="110" xlink:href="F85FA6EBCC0B4EEC.png"  transform="matrix(1 0 0 1 1054.6582 545.9976)">
				</image>
			</g>
			<g>
				<linearGradient id="SVGID_33_" gradientUnits="userSpaceOnUse" x1="1101.5475" y1="583.7634" x2="1115.8931" y2="616.3672">
					<stop  offset="0" style="stop-color:#EBA978"/>
					<stop  offset="0.7919" style="stop-color:#E07B30"/>
					<stop  offset="1" style="stop-color:#E38B2F"/>
				</linearGradient>
				<path style="fill:url(#SVGID_33_);" d="M1090.557,600.206c0-10.074,8.161-18.24,18.226-18.24l0,0
					c10.065,0,18.223,8.166,18.223,18.24l0,0c0,10.074-8.158,18.239-18.223,18.239l0,0
					C1098.718,618.445,1090.557,610.28,1090.557,600.206L1090.557,600.206z M1096.64,588.051c-3.11,3.114-5.03,7.407-5.03,12.155
					l0,0c0,4.746,1.92,9.042,5.03,12.152l0,0c3.109,3.111,7.4,5.034,12.143,5.034l0,0c4.743,0,9.033-1.923,12.143-5.034l0,0
					c3.106-3.11,5.029-7.406,5.029-12.152l0,0c0-4.748-1.923-9.041-5.029-12.155l0,0c-3.11-3.11-7.4-5.033-12.143-5.033l0,0
					C1104.04,583.018,1099.749,584.941,1096.64,588.051L1096.64,588.051z"/>
			</g>
			<path style="fill:#F4C9D0;" d="M1121.307,588.436c-0.062-0.064-0.127-0.127-0.193-0.189c2.997,3.095,4.841,7.307,4.841,11.959
				c0,4.746-1.923,9.042-5.029,12.152c-3.11,3.111-7.4,5.034-12.143,5.034c-4.646,0-8.857-1.848-11.949-4.844
				c0.062,0.064,0.125,0.131,0.189,0.193c3.109,3.111,7.4,5.034,12.142,5.034c4.743,0,9.036-1.923,12.142-5.034
				c3.109-3.111,5.03-7.406,5.03-12.151C1126.337,595.843,1124.416,591.549,1121.307,588.436z M1109.166,582.35
				c4.938,0,9.412,1.963,12.693,5.152c-3.311-3.414-7.945-5.536-13.075-5.536c-10.065,0-18.226,8.166-18.226,18.24
				c0,5.133,2.121,9.773,5.532,13.086c-3.185-3.283-5.148-7.763-5.148-12.701C1090.941,590.514,1099.101,582.35,1109.166,582.35z"/>
		</g>
		<g>
			<g style="opacity:0.6;">
				
					<image style="overflow:visible;" width="109" height="109" xlink:href="F85FA6EBCC0B4EED.png"  transform="matrix(1 0 0 1 1097.6582 546.9976)">
				</image>
			</g>
			<g>
				<linearGradient id="SVGID_34_" gradientUnits="userSpaceOnUse" x1="1144.5157" y1="584.1662" x2="1158.8615" y2="616.7703">
					<stop  offset="0" style="stop-color:#EBA978"/>
					<stop  offset="0.7919" style="stop-color:#E07B30"/>
					<stop  offset="1" style="stop-color:#E38B2F"/>
				</linearGradient>
				<path style="fill:url(#SVGID_34_);" d="M1133.526,600.608c0-10.074,8.159-18.239,18.224-18.239l0,0
					c10.066,0,18.224,8.165,18.224,18.239l0,0c0,10.075-8.158,18.24-18.224,18.24l0,0
					C1141.685,618.848,1133.526,610.683,1133.526,600.608L1133.526,600.608z M1139.608,588.455c-3.11,3.113-5.03,7.406-5.03,12.154
					l0,0c0,4.747,1.92,9.042,5.03,12.152l0,0c3.109,3.113,7.398,5.034,12.142,5.034l0,0c4.746,0,9.034-1.922,12.144-5.034l0,0
					c3.106-3.11,5.027-7.405,5.027-12.152l0,0c0-4.747-1.921-9.041-5.027-12.154l0,0c-3.11-3.11-7.398-5.033-12.144-5.034l0,0
					C1147.007,583.422,1142.717,585.344,1139.608,588.455L1139.608,588.455z"/>
			</g>
			<path style="fill:#F4C9D0;" d="M1164.277,588.839c-0.063-0.064-0.13-0.126-0.193-0.19c2.996,3.095,4.838,7.31,4.838,11.959
				c0,4.747-1.921,9.042-5.027,12.152c-3.11,3.113-7.398,5.034-12.144,5.034c-4.644,0-8.854-1.846-11.947-4.842
				c0.062,0.064,0.124,0.127,0.191,0.193c3.109,3.111,7.398,5.033,12.142,5.033s9.034-1.922,12.142-5.033
				c3.107-3.111,5.03-7.405,5.03-12.155C1169.307,596.246,1167.384,591.951,1164.277,588.839z M1152.135,582.752
				c4.935,0,9.41,1.963,12.693,5.154c-3.314-3.415-7.946-5.536-13.078-5.536c-10.065,0-18.224,8.165-18.224,18.239
				c0,5.134,2.122,9.774,5.533,13.086c-3.186-3.283-5.148-7.762-5.149-12.704C1133.911,590.917,1142.069,582.752,1152.135,582.752z"
				/>
		</g>
	</g>
	<g>
		<polyline style="fill:#EAEA1F;" points="1115.116,335.244 1100.677,350.174 920.209,-18.885 953.726,-27.628 		"/>
		<polyline style="fill:#39B54A;" points="953.726,-27.628 987.504,-36.439 1127.865,321.324 1115.116,335.244 		"/>
		
			<image style="overflow:visible;opacity:0.5;" width="209" height="391" xlink:href="F85FA6EBCC0B4EEF.png"  transform="matrix(1 0 0 1 918.8831 -37)">
		</image>
	</g>
	<g>
		<polyline style="fill:#EAEA1F;" points="1145.699,335.244 1160.137,350.174 1340.606,-18.885 1307.089,-27.628 		"/>
		<polyline style="fill:#39B54A;" points="1307.089,-27.628 1273.311,-36.439 1132.948,321.324 1145.699,335.244 		"/>
		
			<image style="overflow:visible;opacity:0.5;" width="209" height="391" xlink:href="F85FA6EBCC0B4EEB.png"  transform="matrix(1 0 0 1 1131.8831 -37)">
		</image>
	</g>
	<g style="opacity:0.3;">
		
			<image style="overflow:visible;" width="494" height="777" xlink:href="F85FA6EBCC0B4F13.png"  transform="matrix(1 0 0 1 438.8831 -56)">
		</image>
	</g>
	<g>
		<g style="opacity:0.6;">
			
				<image style="overflow:visible;" width="141" height="141" xlink:href="F85FA6EBCC0B4F08.png"  transform="matrix(1 0 0 1 616.8831 284)">
			</image>
		</g>
		<g>
			<linearGradient id="SVGID_35_" gradientUnits="userSpaceOnUse" x1="672.792" y1="322.2662" x2="699.4816" y2="382.9246">
				<stop  offset="0" style="stop-color:#FAEC80"/>
				<stop  offset="0.7919" style="stop-color:#E3C42B"/>
				<stop  offset="1" style="stop-color:#F4E026"/>
			</linearGradient>
			<path style="fill:url(#SVGID_35_);" d="M652.322,352.856c0-18.739,15.192-33.928,33.93-33.929l0,0
				c18.739,0.001,33.931,15.19,33.931,33.929l0,0c0,18.741-15.191,33.93-33.931,33.93l0,0
				C667.514,386.786,652.322,371.597,652.322,352.856L652.322,352.856z M663.646,330.25c-5.789,5.788-9.364,13.774-9.364,22.606l0,0
				c0,8.832,3.575,16.819,9.364,22.607l0,0c5.788,5.788,13.774,9.365,22.606,9.365l0,0c8.833,0,16.819-3.577,22.608-9.365l0,0
				c5.785-5.788,9.363-13.775,9.363-22.607l0,0c0-8.833-3.578-16.818-9.363-22.606l0,0c-5.789-5.788-13.775-9.363-22.608-9.364l0,0
				C677.42,320.887,669.434,324.462,663.646,330.25L663.646,330.25z"/>
		</g>
		<path style="fill:#FFFFFF;" d="M709.573,330.964c-0.119-0.119-0.24-0.236-0.361-0.354c5.578,5.758,9.012,13.596,9.012,22.246
			c0,8.832-3.578,16.819-9.363,22.607c-5.789,5.788-13.775,9.365-22.608,9.365c-8.648,0-16.486-3.434-22.243-9.011
			c0.116,0.12,0.233,0.242,0.352,0.361c5.787,5.787,13.775,9.363,22.606,9.363c8.833,0,16.819-3.576,22.607-9.363
			c5.787-5.788,9.365-13.776,9.365-22.607C718.938,344.739,715.36,336.753,709.573,330.964z M686.966,319.642
			c9.19,0,17.522,3.652,23.63,9.585c-6.164-6.353-14.793-10.3-24.345-10.3c-18.737,0.001-33.93,15.19-33.93,33.929
			c0,9.551,3.948,18.178,10.299,24.345c-5.931-6.109-9.584-14.441-9.585-23.63C653.036,334.831,668.227,319.642,686.966,319.642z"/>
	</g>
	<linearGradient id="SVGID_36_" gradientUnits="userSpaceOnUse" x1="540.0872" y1="520.396" x2="833.9339" y2="520.396">
		<stop  offset="0" style="stop-color:#FFE667"/>
		<stop  offset="0.2721" style="stop-color:#FFD857"/>
		<stop  offset="0.2792" style="stop-color:#FFD856"/>
		<stop  offset="0.6396" style="stop-color:#C2872B"/>
		<stop  offset="1" style="stop-color:#DCA727"/>
	</linearGradient>
	<path style="fill:url(#SVGID_36_);" d="M687.011,667.319c-81.014,0-146.924-65.91-146.924-146.924
		c0-81.013,65.91-146.923,146.924-146.923c81.015,0,146.923,65.91,146.923,146.923C833.934,601.409,768.026,667.319,687.011,667.319
		z"/>
	<g>
		<radialGradient id="SVGID_37_" cx="687.0106" cy="520.396" r="131.1577" gradientUnits="userSpaceOnUse">
			<stop  offset="0.1798" style="stop-color:#F4E8D9"/>
			<stop  offset="0.5899" style="stop-color:#EDD089"/>
			<stop  offset="1" style="stop-color:#C08329"/>
		</radialGradient>
		<path style="fill:url(#SVGID_37_);" d="M687.011,651.554c-72.321,0-131.158-58.837-131.158-131.158
			c0-72.32,58.837-131.157,131.158-131.157s131.157,58.837,131.157,131.157C818.168,592.717,759.332,651.554,687.011,651.554z"/>
		<linearGradient id="SVGID_38_" gradientUnits="userSpaceOnUse" x1="551.9114" y1="520.396" x2="822.1097" y2="520.396">
			<stop  offset="0" style="stop-color:#FAE7A0"/>
			<stop  offset="0.1798" style="stop-color:#FAE39B"/>
			<stop  offset="0.2792" style="stop-color:#F9DD8E"/>
			<stop  offset="0.5899" style="stop-color:#DCB15D"/>
			<stop  offset="0.6396" style="stop-color:#D5A754"/>
			<stop  offset="1" style="stop-color:#CE9528"/>
		</linearGradient>
		<path style="fill:url(#SVGID_38_);" d="M687.011,655.495c-74.556,0-135.1-60.543-135.1-135.1
			c0-74.555,60.544-135.099,135.1-135.099S822.11,445.84,822.11,520.396C822.11,594.952,761.567,655.495,687.011,655.495z"/>
		<linearGradient id="SVGID_39_" gradientUnits="userSpaceOnUse" x1="547.97" y1="520.396" x2="826.0511" y2="520.396">
			<stop  offset="0" style="stop-color:#FFE667"/>
			<stop  offset="0.2721" style="stop-color:#FFD857"/>
			<stop  offset="0.2792" style="stop-color:#FFD856"/>
			<stop  offset="0.6396" style="stop-color:#C2872B"/>
			<stop  offset="1" style="stop-color:#DCA727"/>
		</linearGradient>
		<circle style="fill:url(#SVGID_39_);" cx="687.011" cy="520.396" r="139.041"/>
		<radialGradient id="SVGID_40_" cx="687.0106" cy="520.396" r="131.1577" gradientUnits="userSpaceOnUse">
			<stop  offset="0" style="stop-color:#FAE7A0"/>
			<stop  offset="0.1798" style="stop-color:#FAE39B"/>
			<stop  offset="0.2792" style="stop-color:#F9DD8E"/>
			<stop  offset="0.5899" style="stop-color:#DCB15D"/>
			<stop  offset="0.6396" style="stop-color:#D5A754"/>
			<stop  offset="1" style="stop-color:#CE9528"/>
		</radialGradient>
		<path style="fill:url(#SVGID_40_);" d="M687.011,651.554c-72.382,0-131.158-58.775-131.158-131.158
			c0-72.382,58.776-131.157,131.158-131.157c72.382,0,131.157,58.775,131.157,131.157
			C818.168,592.778,759.393,651.554,687.011,651.554z"/>
		<radialGradient id="SVGID_41_" cx="687.0105" cy="520.396" r="123.2749" gradientUnits="userSpaceOnUse">
			<stop  offset="0.1798" style="stop-color:#F4E8D9"/>
			<stop  offset="0.5899" style="stop-color:#EDD089"/>
			<stop  offset="1" style="stop-color:#C08329"/>
		</radialGradient>
		<path style="fill:url(#SVGID_41_);" d="M687.011,643.671c-67.975,0-123.275-55.301-123.275-123.275
			c0-67.974,55.301-123.274,123.275-123.274c67.974,0,123.274,55.301,123.274,123.274
			C810.285,588.37,754.985,643.671,687.011,643.671z"/>
		<radialGradient id="SVGID_42_" cx="687.011" cy="520.396" r="117.8232" gradientUnits="userSpaceOnUse">
			<stop  offset="0.1798" style="stop-color:#E6CB96"/>
			<stop  offset="0.5899" style="stop-color:#E2BF6E"/>
			<stop  offset="1" style="stop-color:#C08329"/>
		</radialGradient>
		<path style="fill:url(#SVGID_42_);" d="M687.011,639.729c-65.801,0-119.334-53.533-119.334-119.334
			c0-65.8,53.533-119.333,119.334-119.333c65.801,0,119.334,53.533,119.334,119.333
			C806.345,586.197,752.812,639.729,687.011,639.729z"/>
		<radialGradient id="SVGID_43_" cx="687.0116" cy="520.396" r="112.4712" gradientUnits="userSpaceOnUse">
			<stop  offset="0.5899" style="stop-color:#D7AD52"/>
			<stop  offset="1" style="stop-color:#C08329"/>
		</radialGradient>
		<path style="fill:url(#SVGID_43_);" d="M687.011,635.788c-63.628,0-115.393-51.765-115.393-115.393
			c0-63.627,51.765-115.392,115.393-115.392s115.394,51.765,115.394,115.392C802.405,584.023,750.639,635.788,687.011,635.788z"/>
	</g>
	<radialGradient id="SVGID_44_" cx="687.0116" cy="520.396" r="104.7879" gradientUnits="userSpaceOnUse">
		<stop  offset="0.5899" style="stop-color:#EB9C41"/>
		<stop  offset="1" style="stop-color:#C08329"/>
	</radialGradient>
	<path style="fill:url(#SVGID_44_);" d="M687.011,627.905c-59.281,0-107.51-48.228-107.51-107.51
		c0-59.28,48.228-107.509,107.51-107.509c59.28,0,107.511,48.229,107.511,107.509C794.522,579.677,746.291,627.905,687.011,627.905z
		"/>
	<radialGradient id="SVGID_45_" cx="687.0116" cy="520.396" r="103.5684" gradientUnits="userSpaceOnUse">
		<stop  offset="0.5846" style="stop-color:#C08329"/>
		<stop  offset="1" style="stop-color:#C08329"/>
	</radialGradient>
	<path style="fill:url(#SVGID_45_);stroke:#FBB03B;stroke-width:0.7883;stroke-miterlimit:10;" d="M687.011,623.964
		c-57.107,0-103.568-46.46-103.568-103.568c0-57.107,46.461-103.567,103.568-103.567c57.108,0,103.569,46.46,103.569,103.567
		C790.58,577.504,744.119,623.964,687.011,623.964z"/>
	<linearGradient id="SVGID_46_" gradientUnits="userSpaceOnUse" x1="561.2591" y1="520.1882" x2="813.7659" y2="520.1882">
		<stop  offset="0" style="stop-color:#FFE667"/>
		<stop  offset="0.2721" style="stop-color:#FFD857"/>
		<stop  offset="0.2792" style="stop-color:#FFD856"/>
		<stop  offset="0.6396" style="stop-color:#C2872B"/>
		<stop  offset="1" style="stop-color:#DCA727"/>
	</linearGradient>
	<circle style="fill:url(#SVGID_46_);" cx="687.512" cy="520.188" r="126.254"/>
	<g>
		<g>
			<g style="opacity:0.6;">
				
					<image style="overflow:visible;" width="110" height="109" xlink:href="F85FA6EBCC0B4F0B.png"  transform="matrix(1 0 0 1 586.1419 530.0192)">
				</image>
			</g>
			<g>
				<linearGradient id="SVGID_47_" gradientUnits="userSpaceOnUse" x1="633.4823" y1="567.0563" x2="647.8245" y2="599.6523">
					<stop  offset="0" style="stop-color:#FAEC80"/>
					<stop  offset="0.7919" style="stop-color:#E3C42B"/>
					<stop  offset="1" style="stop-color:#F4E026"/>
				</linearGradient>
				<path style="fill:url(#SVGID_47_);" d="M622.482,583.495c0-10.07,8.164-18.232,18.233-18.232l0,0
					c10.07,0,18.233,8.162,18.233,18.232l0,0c0,10.07-8.163,18.232-18.233,18.232l0,0
					C630.646,601.727,622.482,593.565,622.482,583.495L622.482,583.495z M628.568,571.346c-3.11,3.11-5.032,7.401-5.032,12.148l0,0
					c0,4.745,1.922,9.038,5.032,12.147l0,0c3.11,3.11,7.402,5.033,12.147,5.033l0,0c4.746,0,9.037-1.923,12.148-5.033l0,0
					c3.108-3.109,5.031-7.402,5.031-12.147l0,0c0-4.747-1.923-9.038-5.031-12.148l0,0c-3.111-3.109-7.402-5.031-12.148-5.032l0,0
					C635.97,566.315,631.678,568.237,628.568,571.346L628.568,571.346z"/>
			</g>
			<path style="fill:#FFFFFF;" d="M653.247,571.73c-0.065-0.063-0.13-0.126-0.194-0.19c2.997,3.095,4.842,7.307,4.842,11.955
				c0,4.745-1.923,9.038-5.031,12.147c-3.111,3.11-7.402,5.033-12.148,5.033c-4.647,0-8.86-1.845-11.953-4.843
				c0.062,0.064,0.125,0.13,0.19,0.194c3.109,3.109,7.402,5.031,12.147,5.031c4.746,0,9.038-1.922,12.148-5.031
				c3.109-3.11,5.031-7.402,5.031-12.148C658.279,579.133,656.357,574.841,653.247,571.73z M641.099,565.646
				c4.938,0,9.416,1.963,12.698,5.151c-3.312-3.414-7.949-5.535-13.082-5.535c-10.069,0-18.233,8.162-18.233,18.232
				c0,5.132,2.122,9.768,5.535,13.082c-3.188-3.283-5.15-7.76-5.151-12.698C622.867,573.808,631.03,565.646,641.099,565.646z"/>
		</g>
		<g>
			<g style="opacity:0.6;">
				
					<image style="overflow:visible;" width="110" height="109" xlink:href="F85FA6EBCC0B4F09.png"  transform="matrix(1 0 0 1 629.1419 530.0192)">
				</image>
			</g>
			<g>
				<linearGradient id="SVGID_48_" gradientUnits="userSpaceOnUse" x1="676.2357" y1="567.0563" x2="690.5778" y2="599.6522">
					<stop  offset="0" style="stop-color:#FAEC80"/>
					<stop  offset="0.7919" style="stop-color:#E3C42B"/>
					<stop  offset="1" style="stop-color:#F4E026"/>
				</linearGradient>
				<path style="fill:url(#SVGID_48_);" d="M665.236,583.495c0-10.07,8.163-18.232,18.232-18.232l0,0
					c10.07,0,18.232,8.162,18.234,18.232l0,0c-0.002,10.07-8.164,18.232-18.234,18.232l0,0
					C673.399,601.727,665.236,593.565,665.236,583.495L665.236,583.495z M671.321,571.347c-3.11,3.109-5.032,7.4-5.032,12.147l0,0
					c0,4.745,1.922,9.038,5.032,12.147l0,0c3.11,3.11,7.402,5.033,12.148,5.033l0,0c4.746,0,9.037-1.923,12.148-5.033l0,0
					c3.109-3.109,5.031-7.402,5.031-12.147l0,0c0-4.747-1.922-9.038-5.031-12.147l0,0c-3.111-3.11-7.402-5.032-12.148-5.032l0,0
					C678.723,566.315,674.431,568.237,671.321,571.347L671.321,571.347z"/>
			</g>
			<path style="fill:#FFFFFF;" d="M696.001,571.73c-0.065-0.063-0.129-0.126-0.195-0.19c2.998,3.095,4.842,7.307,4.842,11.955
				c0,4.745-1.922,9.038-5.031,12.147c-3.111,3.11-7.402,5.033-12.148,5.033c-4.648,0-8.859-1.845-11.953-4.843
				c0.062,0.064,0.125,0.13,0.19,0.194c3.109,3.109,7.402,5.031,12.148,5.031c4.746,0,9.037-1.922,12.148-5.031
				c3.109-3.11,5.031-7.402,5.031-12.148C701.033,579.133,699.111,574.842,696.001,571.73z M683.853,565.646
				c4.938,0,9.416,1.963,12.697,5.151c-3.312-3.414-7.949-5.535-13.082-5.535c-10.069,0-18.232,8.162-18.232,18.232
				c0,5.132,2.121,9.768,5.534,13.082c-3.188-3.283-5.15-7.76-5.151-12.698C665.619,573.808,673.783,565.646,683.853,565.646z"/>
		</g>
		<g>
			<g style="opacity:0.6;">
				
					<image style="overflow:visible;" width="109" height="109" xlink:href="F85FA6EBCC0B4F07.png"  transform="matrix(1 0 0 1 672.1419 530.0192)">
				</image>
			</g>
			<g>
				<linearGradient id="SVGID_49_" gradientUnits="userSpaceOnUse" x1="718.989" y1="567.0566" x2="733.3311" y2="599.6525">
					<stop  offset="0" style="stop-color:#FAEC80"/>
					<stop  offset="0.7919" style="stop-color:#E3C42B"/>
					<stop  offset="1" style="stop-color:#F4E026"/>
				</linearGradient>
				<path style="fill:url(#SVGID_49_);" d="M707.988,583.495c0-10.07,8.166-18.232,18.234-18.232l0,0
					c10.07,0,18.232,8.162,18.234,18.232l0,0c-0.002,10.07-8.164,18.232-18.234,18.232l0,0
					C716.154,601.727,707.988,593.565,707.988,583.495L707.988,583.495z M714.074,571.347c-3.111,3.109-5.031,7.4-5.031,12.147l0,0
					c0,4.745,1.92,9.038,5.031,12.147l0,0c3.111,3.11,7.402,5.033,12.148,5.033l0,0c4.746,0,9.037-1.923,12.146-5.033l0,0
					c3.111-3.109,5.033-7.402,5.033-12.147l0,0c0-4.747-1.922-9.038-5.033-12.147l0,0c-3.109-3.11-7.4-5.032-12.146-5.032l0,0
					C721.476,566.315,717.185,568.237,714.074,571.347L714.074,571.347z"/>
			</g>
			<path style="fill:#FFFFFF;" d="M738.755,571.73c-0.066-0.063-0.131-0.126-0.197-0.19c2.998,3.095,4.844,7.307,4.844,11.955
				c0,4.745-1.922,9.038-5.033,12.147c-3.109,3.11-7.4,5.033-12.146,5.033c-4.648,0-8.861-1.845-11.953-4.843
				c0.062,0.064,0.125,0.13,0.189,0.194c3.109,3.109,7.402,5.031,12.146,5.031c4.748,0,9.039-1.922,12.15-5.031
				c3.107-3.11,5.031-7.402,5.031-12.148C743.786,579.133,741.863,574.842,738.755,571.73z M726.605,565.646
				c4.939,0,9.416,1.963,12.699,5.151c-3.312-3.414-7.949-5.535-13.082-5.535c-10.068,0-18.234,8.162-18.234,18.232
				c0,5.132,2.123,9.768,5.535,13.082c-3.188-3.283-5.15-7.76-5.15-12.698C708.372,573.808,716.536,565.646,726.605,565.646z"/>
		</g>
		<g>
			<g style="opacity:0.6;">
				
					<image style="overflow:visible;" width="110" height="110" xlink:href="F85FA6EBCC0B4F38.png"  transform="matrix(1 0 0 1 607.1419 543.0192)">
				</image>
			</g>
			<g>
				<linearGradient id="SVGID_50_" gradientUnits="userSpaceOnUse" x1="654.524" y1="580.5439" x2="668.8661" y2="613.1396">
					<stop  offset="0" style="stop-color:#FAEC80"/>
					<stop  offset="0.7919" style="stop-color:#E3C42B"/>
					<stop  offset="1" style="stop-color:#F4E026"/>
				</linearGradient>
				<path style="fill:url(#SVGID_50_);" d="M643.524,596.982c0-10.069,8.164-18.232,18.233-18.232l0,0
					c10.069,0,18.232,8.163,18.233,18.232l0,0c-0.001,10.07-8.164,18.232-18.233,18.232l0,0
					C651.688,615.215,643.524,607.052,643.524,596.982L643.524,596.982z M649.609,584.834c-3.11,3.111-5.031,7.402-5.031,12.148l0,0
					c0,4.746,1.921,9.038,5.031,12.148l0,0c3.11,3.11,7.402,5.032,12.148,5.032l0,0c4.746,0,9.037-1.922,12.147-5.032l0,0
					c3.109-3.11,5.032-7.402,5.032-12.148l0,0c0-4.746-1.923-9.037-5.032-12.148l0,0c-3.11-3.109-7.401-5.031-12.147-5.031l0,0
					C657.011,579.802,652.719,581.724,649.609,584.834L649.609,584.834z"/>
			</g>
			<path style="fill:#FFFFFF;" d="M674.289,585.218c-0.065-0.064-0.13-0.127-0.195-0.19c2.998,3.095,4.843,7.306,4.843,11.954
				c0,4.746-1.923,9.038-5.032,12.148c-3.11,3.11-7.401,5.032-12.147,5.032c-4.648,0-8.86-1.846-11.953-4.842
				c0.062,0.063,0.125,0.13,0.188,0.193c3.11,3.11,7.403,5.032,12.148,5.032c4.746,0,9.038-1.922,12.148-5.032
				c3.109-3.11,5.031-7.403,5.031-12.147C679.321,592.62,677.399,588.329,674.289,585.218z M662.141,579.134
				c4.938,0,9.415,1.962,12.698,5.149c-3.314-3.413-7.95-5.534-13.082-5.534c-10.069,0-18.233,8.163-18.233,18.232
				c0,5.133,2.122,9.768,5.534,13.083c-3.187-3.283-5.15-7.761-5.15-12.698C643.908,587.296,652.071,579.134,662.141,579.134z"/>
		</g>
		<g>
			<g style="opacity:0.6;">
				
					<image style="overflow:visible;" width="110" height="110" xlink:href="F85FA6EBCC0B4F3B.png"  transform="matrix(1 0 0 1 650.1419 543.0192)">
				</image>
			</g>
			<g>
				<linearGradient id="SVGID_51_" gradientUnits="userSpaceOnUse" x1="697.5117" y1="580.9467" x2="711.854" y2="613.5428">
					<stop  offset="0" style="stop-color:#FAEC80"/>
					<stop  offset="0.7919" style="stop-color:#E3C42B"/>
					<stop  offset="1" style="stop-color:#F4E026"/>
				</linearGradient>
				<path style="fill:url(#SVGID_51_);" d="M686.511,597.384c0-10.069,8.164-18.231,18.232-18.231l0,0
					c10.072,0,18.234,8.162,18.234,18.231l0,0c0,10.071-8.162,18.233-18.234,18.233l0,0
					C694.675,615.618,686.511,607.456,686.511,597.384L686.511,597.384z M692.597,585.237c-3.111,3.11-5.031,7.401-5.031,12.147l0,0
					c0,4.746,1.92,9.039,5.031,12.148l0,0c3.109,3.11,7.402,5.032,12.146,5.032l0,0c4.748,0,9.039-1.922,12.15-5.032l0,0
					c3.107-3.109,5.031-7.402,5.031-12.148l0,0c0-4.746-1.924-9.037-5.031-12.147l0,0c-3.111-3.109-7.402-5.031-12.15-5.032l0,0
					C699.999,580.206,695.706,582.128,692.597,585.237L692.597,585.237z"/>
			</g>
			<path style="fill:#FFFFFF;" d="M717.277,585.621c-0.065-0.065-0.129-0.126-0.193-0.191c2.998,3.094,4.842,7.307,4.842,11.954
				c0,4.746-1.924,9.039-5.031,12.148c-3.111,3.11-7.402,5.032-12.15,5.032c-4.646,0-8.857-1.845-11.951-4.842
				c0.062,0.065,0.125,0.129,0.189,0.194c3.109,3.109,7.402,5.031,12.148,5.031c4.744,0,9.037-1.922,12.147-5.031
				c3.109-3.11,5.033-7.402,5.033-12.148S720.386,588.731,717.277,585.621z M705.13,579.536c4.938,0,9.414,1.963,12.695,5.151
				c-3.312-3.414-7.947-5.534-13.082-5.534c-10.068,0-18.232,8.162-18.232,18.231c0,5.133,2.123,9.77,5.535,13.082
				c-3.188-3.282-5.15-7.76-5.15-12.697C686.896,587.698,695.058,579.536,705.13,579.536z"/>
		</g>
	</g>
	<g>
		<polyline style="fill:#EAEA1F;" points="671.513,335.094 657.068,350.017 476.518,-18.892 510.049,-27.631 		"/>
		<polyline style="fill:#39B54A;" points="510.049,-27.631 543.843,-36.439 684.269,321.178 671.513,335.094 		"/>
		
			<image style="overflow:visible;opacity:0.5;" width="208" height="390" xlink:href="F85FA6EBCC0B4F39.png"  transform="matrix(1 0 0 1 475.8831 -37)">
		</image>
	</g>
	<g>
		<polyline style="fill:#EAEA1F;" points="702.11,335.094 716.555,350.017 897.106,-18.892 863.575,-27.631 		"/>
		<polyline style="fill:#39B54A;" points="863.575,-27.631 829.78,-36.439 689.354,321.178 702.11,335.094 		"/>
		
			<image style="overflow:visible;opacity:0.5;" width="209" height="390" xlink:href="F85FA6EBCC0B4F3F.png"  transform="matrix(1 0 0 1 687.8831 -37)">
		</image>
	</g>
</g>
<g id="Designed_by_Freepik">
</g>
</svg>
