<?xml version="1.0" encoding="iso-8859-1"?>
<!-- Generator: Adobe Illustrator 20.0.0, SVG Export Plug-In . SVG Version: 6.00 Build 0)  -->
<svg version="1.1" xmlns="http://www.w3.org/2000/svg" xmlns:xlink="http://www.w3.org/1999/xlink" x="0px" y="0px"
	 viewBox="0 0 1200 800" style="enable-background:new 0 0 1200 800;" xml:space="preserve">
<g id="_x38_00x800">
</g>
<g id="_x31_200x800">
	<g>
		<g style="opacity:0.3;">
			
				<image style="overflow:visible;" width="494" height="774" xlink:href="B05A977E8853F4F.png"  transform="matrix(1 0 0 1 331 -53)">
			</image>
		</g>
		<g>
			<g style="opacity:0.6;">
				
					<image style="overflow:visible;" width="141" height="141" xlink:href="B05A977E8853F4D.png"  transform="matrix(1 0 0 1 509 282)">
				</image>
			</g>
			<g>
				<linearGradient id="SVGID_1_" gradientUnits="userSpaceOnUse" x1="564.9617" y1="320.6181" x2="591.5477" y2="381.0412">
					<stop  offset="0" style="stop-color:#ECECEC"/>
					<stop  offset="0.7919" style="stop-color:#C4C4C4"/>
					<stop  offset="1" style="stop-color:#D9D9D9"/>
				</linearGradient>
				<path style="fill:url(#SVGID_1_);" d="M544.455,351.09c0-18.655,15.187-33.775,33.915-33.775l0,0
					c18.73,0.001,33.913,15.121,33.914,33.775l0,0c-0.001,18.655-15.184,33.775-33.914,33.775l0,0
					C559.641,384.865,544.455,369.744,544.455,351.09L544.455,351.09z M555.774,328.585c-5.787,5.762-9.36,13.711-9.36,22.505l0,0
					c0,8.791,3.574,16.743,9.36,22.504l0,0c5.784,5.762,13.768,9.322,22.596,9.322l0,0c8.828,0,16.809-3.56,22.596-9.322l0,0
					c5.783-5.761,9.36-13.713,9.36-22.504l0,0c0-8.793-3.578-16.743-9.36-22.505l0,0c-5.787-5.761-13.768-9.321-22.596-9.321l0,0
					C569.542,319.264,561.558,322.824,555.774,328.585L555.774,328.585z"/>
			</g>
			<path style="fill:#FFFFFF;" d="M601.68,329.296c-0.12-0.118-0.24-0.235-0.361-0.352c5.576,5.732,9.007,13.535,9.007,22.146
				c0,8.791-3.578,16.743-9.36,22.504c-5.787,5.762-13.768,9.322-22.596,9.322c-8.646,0-16.48-3.418-22.235-8.97
				c0.117,0.119,0.234,0.239,0.352,0.359c5.785,5.762,13.769,9.321,22.597,9.321c8.828,0,16.812-3.559,22.596-9.321
				c5.784-5.761,9.36-13.713,9.36-22.505C611.04,343.008,607.464,335.059,601.68,329.296z M579.084,318.026
				c9.184,0,17.513,3.636,23.619,9.542c-6.164-6.324-14.787-10.254-24.333-10.254c-18.729,0.001-33.915,15.121-33.915,33.775
				c0,9.507,3.947,18.095,10.294,24.234c-5.927-6.082-9.579-14.375-9.581-23.523C545.169,333.145,560.353,318.026,579.084,318.026z"
				/>
		</g>
		<linearGradient id="SVGID_2_" gradientUnits="userSpaceOnUse" x1="432.3673" y1="517.8676" x2="726.0798" y2="517.8676">
			<stop  offset="0" style="stop-color:#E7E7E7"/>
			<stop  offset="0.2792" style="stop-color:#DDDDDD"/>
			<stop  offset="0.6396" style="stop-color:#969696"/>
			<stop  offset="1" style="stop-color:#B0B0B0"/>
		</linearGradient>
		<path style="fill:url(#SVGID_2_);" d="M579.225,664.123c-80.977,0-146.858-65.611-146.858-146.255
			c0-80.646,65.88-146.257,146.858-146.257c80.976,0,146.855,65.611,146.855,146.257
			C726.08,598.512,660.201,664.123,579.225,664.123z"/>
		<g>
			
				<radialGradient id="SVGID_3_" cx="513.451" cy="444.1507" r="96.4395" gradientTransform="matrix(1.3594 0 0 1.3538 -118.7475 -83.4323)" gradientUnits="userSpaceOnUse">
				<stop  offset="0.1798" style="stop-color:#F2F2F2"/>
				<stop  offset="0.5899" style="stop-color:#D9D9D9"/>
				<stop  offset="1" style="stop-color:#939393"/>
			</radialGradient>
			<path style="fill:url(#SVGID_3_);" d="M579.225,648.429c-72.289,0-131.097-58.57-131.097-130.56
				c0-71.993,58.809-130.563,131.097-130.563c72.288,0,131.097,58.57,131.097,130.563
				C710.322,589.859,651.513,648.429,579.225,648.429z"/>
			
				<linearGradient id="SVGID_4_" gradientUnits="userSpaceOnUse" x1="426.8599" y1="475.4686" x2="655.7975" y2="475.4686" gradientTransform="matrix(1.1797 0 0 1.1769 -59.3737 -41.7161)">
				<stop  offset="0" style="stop-color:#ECEDED"/>
				<stop  offset="0.1798" style="stop-color:#EAEBEC"/>
				<stop  offset="0.2792" style="stop-color:#E6E6E8"/>
				<stop  offset="0.5899" style="stop-color:#C5C6C8"/>
				<stop  offset="0.6396" style="stop-color:#BDBFC1"/>
				<stop  offset="1" style="stop-color:#A2A2A2"/>
			</linearGradient>
			<path style="fill:url(#SVGID_4_);" d="M579.225,652.353c-74.522,0-135.037-60.269-135.037-134.484
				c0-74.218,60.515-134.487,135.037-134.487c74.521,0,135.037,60.269,135.037,134.487
				C714.262,592.083,653.746,652.353,579.225,652.353z"/>
			<linearGradient id="SVGID_5_" gradientUnits="userSpaceOnUse" x1="440.2473" y1="517.8672" x2="718.2023" y2="517.8672">
				<stop  offset="0" style="stop-color:#E7E7E7"/>
				<stop  offset="0.2792" style="stop-color:#DDDDDD"/>
				<stop  offset="0.6396" style="stop-color:#969696"/>
				<stop  offset="1" style="stop-color:#B0B0B0"/>
			</linearGradient>
			<ellipse style="fill:url(#SVGID_5_);" cx="579.225" cy="517.868" rx="138.977" ry="138.409"/>
			
				<radialGradient id="SVGID_6_" cx="541.3284" cy="475.4687" r="111.0331" gradientTransform="matrix(1.1797 0 0 1.1769 -59.3737 -41.7161)" gradientUnits="userSpaceOnUse">
				<stop  offset="0" style="stop-color:#ECEDED"/>
				<stop  offset="0.1798" style="stop-color:#EAEBEC"/>
				<stop  offset="0.2792" style="stop-color:#E6E6E8"/>
				<stop  offset="0.5899" style="stop-color:#C5C6C8"/>
				<stop  offset="0.6396" style="stop-color:#BDBFC1"/>
				<stop  offset="1" style="stop-color:#A2A2A2"/>
			</radialGradient>
			<path style="fill:url(#SVGID_6_);" d="M579.225,648.429c-72.35,0-131.099-58.509-131.099-130.561
				c0-72.054,58.749-130.563,131.099-130.563c72.348,0,131.098,58.509,131.098,130.563
				C710.323,589.92,651.573,648.429,579.225,648.429z"/>
			
				<radialGradient id="SVGID_7_" cx="513.4506" cy="444.1509" r="90.6437" gradientTransform="matrix(1.3594 0 0 1.3538 -118.7475 -83.4323)" gradientUnits="userSpaceOnUse">
				<stop  offset="0.1798" style="stop-color:#F2F2F2"/>
				<stop  offset="0.5899" style="stop-color:#D9D9D9"/>
				<stop  offset="1" style="stop-color:#939393"/>
			</radialGradient>
			<path style="fill:url(#SVGID_7_);" d="M579.225,640.582c-67.944,0-123.22-55.049-123.22-122.714
				c0-67.666,55.276-122.716,123.22-122.716c67.942,0,123.218,55.05,123.218,122.716
				C702.443,585.533,647.167,640.582,579.225,640.582z"/>
			
				<radialGradient id="SVGID_8_" cx="513.4508" cy="444.1509" r="86.6349" gradientTransform="matrix(1.3594 0 0 1.3538 -118.7475 -83.4323)" gradientUnits="userSpaceOnUse">
				<stop  offset="0.1798" style="stop-color:#D8D9DB"/>
				<stop  offset="0.5899" style="stop-color:#CED0D1"/>
				<stop  offset="1" style="stop-color:#939393"/>
			</radialGradient>
			<path style="fill:url(#SVGID_8_);" d="M579.225,636.659c-65.771,0-119.28-53.289-119.28-118.79
				c0-65.502,53.509-118.792,119.28-118.792c65.77,0,119.279,53.29,119.279,118.792C698.504,583.37,644.995,636.659,579.225,636.659
				z"/>
			
				<radialGradient id="SVGID_9_" cx="513.451" cy="444.1509" r="82.6995" gradientTransform="matrix(1.3594 0 0 1.3538 -118.7475 -83.4323)" gradientUnits="userSpaceOnUse">
				<stop  offset="0.5899" style="stop-color:#B7B7B7"/>
				<stop  offset="1" style="stop-color:#939393"/>
			</radialGradient>
			<path style="fill:url(#SVGID_9_);" d="M579.225,632.736c-63.599,0-115.34-51.53-115.34-114.867
				c0-63.339,51.741-114.869,115.34-114.869c63.598,0,115.34,51.53,115.34,114.869C694.565,581.206,642.823,632.736,579.225,632.736
				z"/>
		</g>
		
			<radialGradient id="SVGID_10_" cx="513.4511" cy="444.1514" r="77.0496" gradientTransform="matrix(1.3594 0 0 1.3538 -118.7475 -83.4323)" gradientUnits="userSpaceOnUse">
			<stop  offset="0.5899" style="stop-color:#B1B1B1"/>
			<stop  offset="1" style="stop-color:#939393"/>
		</radialGradient>
		<path style="fill:url(#SVGID_10_);" d="M579.225,624.889c-59.255,0-107.46-48.009-107.46-107.02
			c0-59.013,48.205-107.021,107.46-107.021c59.253,0,107.46,48.008,107.46,107.021C686.685,576.88,638.478,624.889,579.225,624.889z
			"/>
		
			<radialGradient id="SVGID_11_" cx="513.4516" cy="444.1512" r="76.1533" gradientTransform="matrix(1.3594 0 0 1.3538 -118.7475 -83.4323)" gradientUnits="userSpaceOnUse">
			<stop  offset="0.5846" style="stop-color:#939393"/>
			<stop  offset="1" style="stop-color:#939393"/>
		</radialGradient>
		<path style="fill:url(#SVGID_11_);stroke:#C1C1C1;stroke-width:0.5796;stroke-miterlimit:10;" d="M579.225,620.965
			c-57.081,0-103.521-46.248-103.521-103.096s46.44-103.098,103.521-103.098c57.082,0,103.522,46.249,103.522,103.098
			S636.307,620.965,579.225,620.965z"/>
		<linearGradient id="SVGID_12_" gradientUnits="userSpaceOnUse" x1="453.5305" y1="517.6613" x2="705.9229" y2="517.6613">
			<stop  offset="0" style="stop-color:#E7E7E7"/>
			<stop  offset="0.2792" style="stop-color:#DDDDDD"/>
			<stop  offset="0.6396" style="stop-color:#969696"/>
			<stop  offset="1" style="stop-color:#B0B0B0"/>
		</linearGradient>
		<ellipse style="fill:url(#SVGID_12_);" cx="579.726" cy="517.66" rx="126.196" ry="125.681"/>
		<g>
			<g>
				<linearGradient id="SVGID_13_" gradientUnits="userSpaceOnUse" x1="530.7484" y1="420.5085" x2="627.5064" y2="611.0385">
					<stop  offset="0" style="stop-color:#E7E7E7"/>
					<stop  offset="0.2792" style="stop-color:#DDDDDD"/>
					<stop  offset="0.6396" style="stop-color:#969696"/>
					<stop  offset="1" style="stop-color:#B0B0B0"/>
				</linearGradient>
				<ellipse style="fill:url(#SVGID_13_);" cx="579.127" cy="515.773" rx="107.17" ry="106.732"/>
				<g style="opacity:0.6;">
					
						<image style="overflow:visible;" width="262" height="265" xlink:href="B05A977E8853F53.png"  transform="matrix(1 0 0 1 433 370)">
					</image>
				</g>
				<linearGradient id="SVGID_14_" gradientUnits="userSpaceOnUse" x1="524.0331" y1="419.0562" x2="633.8557" y2="611.8427">
					<stop  offset="0" style="stop-color:#ECECEC"/>
					<stop  offset="0.7919" style="stop-color:#C4C4C4"/>
					<stop  offset="1" style="stop-color:#D9D9D9"/>
				</linearGradient>
				<path style="fill:url(#SVGID_14_);" d="M579.128,403.081c-62.393,0-113.156,50.553-113.156,112.695
					c0,62.137,50.763,112.692,113.156,112.692c62.397,0,113.159-50.555,113.159-112.692
					C692.287,453.634,641.525,403.081,579.128,403.081z M579.128,622.578c-59.19,0-107.172-47.785-107.172-106.73
					c0-58.946,47.982-106.732,107.172-106.732c59.192,0,107.169,47.786,107.169,106.732
					C686.297,574.792,638.32,622.578,579.128,622.578z"/>
				<path style="fill:#FFFFFF;" d="M664.646,451.523c13.59,17.885,21.651,40.167,21.651,64.326
					c0,58.944-47.976,106.73-107.169,106.73c-33.965,0-64.234-15.738-83.868-40.292c19.562,25.761,50.586,42.407,85.519,42.407
					c59.184,0,107.17-47.785,107.17-106.732C687.948,492.841,679.227,469.753,664.646,451.523z M580.778,405.192
					c35.83,0,67.819,16.677,88.569,42.638c-20.68-27.167-53.424-44.749-90.219-44.749c-62.393,0-113.156,50.553-113.156,112.695
					c0,26.455,9.206,50.804,24.586,70.052c-14.388-18.904-22.934-42.446-22.934-67.941
					C467.623,455.744,518.382,405.192,580.778,405.192z"/>
			</g>
			<path style="display:none;opacity:0.1;fill:#FFFFFF;" d="M489.489,606.746c-49.284-49.083-49.284-128.66,0-177.74
				c49.281-49.081,129.186-49.082,178.47,0"/>
		</g>
		<g>
			<g>
				<g style="opacity:0.6;">
					
						<image style="overflow:visible;" width="110" height="109" xlink:href="B05A977E8853F55.png"  transform="matrix(1 0 0 1 481 497)">
					</image>
				</g>
				<g>
					<linearGradient id="SVGID_15_" gradientUnits="userSpaceOnUse" x1="528.389" y1="534.4227" x2="542.675" y2="566.8913">
						<stop  offset="0" style="stop-color:#ECECEC"/>
						<stop  offset="0.7919" style="stop-color:#C4C4C4"/>
						<stop  offset="1" style="stop-color:#D9D9D9"/>
					</linearGradient>
					<path style="fill:url(#SVGID_15_);" d="M517.368,550.796c0-10.024,8.162-18.148,18.224-18.148l0,0
						c10.067,0,18.227,8.124,18.227,18.148l0,0c0,10.025-8.16,18.15-18.227,18.15l0,0
						C525.53,568.946,517.368,560.822,517.368,550.796L517.368,550.796z M523.451,538.703c-3.109,3.096-5.03,7.368-5.03,12.093l0,0
						c0,4.724,1.921,8.997,5.03,12.093l0,0c3.109,3.096,7.399,5.011,12.141,5.011l0,0c4.745,0,9.035-1.914,12.144-5.011l0,0
						c3.106-3.096,5.029-7.369,5.029-12.093l0,0c0-4.725-1.922-8.997-5.029-12.093l0,0c-3.109-3.095-7.399-5.008-12.144-5.009l0,0
						C530.85,533.695,526.56,535.608,523.451,538.703L523.451,538.703z"/>
				</g>
				<path style="fill:#FFFFFF;" d="M548.119,539.087c-0.064-0.065-0.128-0.127-0.194-0.19c2.998,3.08,4.84,7.274,4.84,11.9
					c0,4.724-1.922,8.997-5.029,12.093c-3.109,3.096-7.399,5.011-12.144,5.011c-4.644,0-8.855-1.836-11.945-4.82
					c0.061,0.063,0.123,0.128,0.189,0.192c3.106,3.095,7.397,5.011,12.141,5.011c4.745,0,9.034-1.916,12.141-5.011
					c3.109-3.095,5.031-7.368,5.031-12.093C553.15,546.455,551.228,542.182,548.119,539.087z M535.977,533.029
					c4.936,0,9.411,1.954,12.694,5.128c-3.313-3.398-7.946-5.509-13.079-5.509c-10.062,0-18.224,8.124-18.224,18.148
					c0,5.11,2.121,9.725,5.533,13.023c-3.186-3.267-5.148-7.724-5.148-12.641C517.753,541.155,525.912,533.029,535.977,533.029z"/>
			</g>
			<g>
				<g style="opacity:0.6;">
					
						<image style="overflow:visible;" width="110" height="109" xlink:href="B05A977E8853F57.png"  transform="matrix(1 0 0 1 524 497)">
					</image>
				</g>
				<g>
					<linearGradient id="SVGID_16_" gradientUnits="userSpaceOnUse" x1="571.123" y1="534.4228" x2="585.4091" y2="566.8914">
						<stop  offset="0" style="stop-color:#ECECEC"/>
						<stop  offset="0.7919" style="stop-color:#C4C4C4"/>
						<stop  offset="1" style="stop-color:#D9D9D9"/>
					</linearGradient>
					<path style="fill:url(#SVGID_16_);" d="M560.103,550.796c0-10.024,8.159-18.148,18.224-18.148l0,0
						c10.065,0,18.224,8.124,18.224,18.148l0,0c0,10.025-8.159,18.15-18.224,18.15l0,0
						C568.262,568.946,560.103,560.822,560.103,550.796L560.103,550.796z M566.186,538.705c-3.11,3.095-5.031,7.367-5.031,12.092
						l0,0c0,4.724,1.921,8.997,5.031,12.093l0,0c3.106,3.096,7.398,5.011,12.141,5.011l0,0c4.745,0,9.032-1.914,12.143-5.011l0,0
						c3.108-3.096,5.027-7.369,5.027-12.093l0,0c0-4.725-1.92-8.997-5.027-12.092l0,0c-3.11-3.096-7.398-5.009-12.143-5.009l0,0
						C573.584,533.695,569.292,535.608,566.186,538.705L566.186,538.705z"/>
				</g>
				<path style="fill:#FFFFFF;" d="M590.854,539.087c-0.065-0.065-0.13-0.127-0.194-0.19c2.995,3.08,4.837,7.274,4.837,11.9
					c0,4.724-1.92,8.997-5.027,12.093c-3.11,3.096-7.398,5.011-12.143,5.011c-4.646,0-8.857-1.836-11.948-4.82
					c0.061,0.063,0.125,0.128,0.188,0.192c3.108,3.095,7.398,5.011,12.143,5.011c4.743,0,9.033-1.916,12.143-5.011
					c3.108-3.095,5.029-7.368,5.029-12.093C595.883,546.455,593.962,542.183,590.854,539.087z M578.711,533.029
					c4.934,0,9.411,1.954,12.693,5.128c-3.311-3.398-7.947-5.509-13.076-5.509c-10.065,0-18.224,8.124-18.224,18.148
					c0,5.11,2.119,9.725,5.53,13.023c-3.186-3.267-5.148-7.724-5.148-12.641C560.486,541.155,568.645,533.029,578.711,533.029z"/>
			</g>
			<g>
				<g style="opacity:0.6;">
					
						<image style="overflow:visible;" width="109" height="109" xlink:href="B05A977E8853F54.png"  transform="matrix(1 0 0 1 567 497)">
					</image>
				</g>
				<g>
					<linearGradient id="SVGID_17_" gradientUnits="userSpaceOnUse" x1="613.8564" y1="534.423" x2="628.1424" y2="566.8912">
						<stop  offset="0" style="stop-color:#ECECEC"/>
						<stop  offset="0.7919" style="stop-color:#C4C4C4"/>
						<stop  offset="1" style="stop-color:#D9D9D9"/>
					</linearGradient>
					<path style="fill:url(#SVGID_17_);" d="M602.836,550.796c0-10.024,8.162-18.148,18.224-18.148l0,0
						c10.065,0,18.224,8.124,18.227,18.148l0,0c-0.003,10.025-8.162,18.15-18.227,18.15l0,0
						C610.998,568.946,602.836,560.822,602.836,550.796L602.836,550.796z M608.919,538.705c-3.11,3.095-5.031,7.367-5.031,12.092
						l0,0c0,4.724,1.921,8.997,5.031,12.093l0,0c3.109,3.096,7.4,5.011,12.141,5.011l0,0c4.745,0,9.034-1.914,12.141-5.011l0,0
						c3.109-3.096,5.03-7.369,5.03-12.093l0,0c0-4.725-1.921-8.997-5.03-12.092l0,0c-3.108-3.096-7.397-5.009-12.141-5.009l0,0
						C616.318,533.695,612.028,535.608,608.919,538.705L608.919,538.705z"/>
				</g>
				<path style="fill:#FFFFFF;" d="M633.587,539.087c-0.064-0.065-0.127-0.127-0.194-0.19c2.995,3.08,4.839,7.274,4.839,11.9
					c0,4.724-1.921,8.997-5.03,12.093c-3.108,3.096-7.397,5.011-12.141,5.011c-4.645,0-8.856-1.836-11.948-4.82
					c0.064,0.063,0.126,0.128,0.19,0.192c3.108,3.095,7.398,5.011,12.143,5.011c4.743,0,9.032-1.916,12.141-5.011
					c3.109-3.095,5.031-7.368,5.031-12.093C638.618,546.455,636.696,542.183,633.587,539.087z M621.445,533.029
					c4.936,0,9.409,1.954,12.691,5.128c-3.311-3.398-7.945-5.509-13.076-5.509c-10.063,0-18.224,8.124-18.224,18.148
					c0,5.11,2.12,9.725,5.532,13.023c-3.186-3.267-5.148-7.724-5.149-12.641C603.22,541.155,611.38,533.029,621.445,533.029z"/>
			</g>
			<g>
				<g style="opacity:0.6;">
					
						<image style="overflow:visible;" width="109" height="110" xlink:href="B05A977E8853F5C.png"  transform="matrix(1 0 0 1 503 510)">
					</image>
				</g>
				<g>
					<linearGradient id="SVGID_18_" gradientUnits="userSpaceOnUse" x1="549.4209" y1="547.8488" x2="563.707" y2="580.3173">
						<stop  offset="0" style="stop-color:#ECECEC"/>
						<stop  offset="0.7919" style="stop-color:#C4C4C4"/>
						<stop  offset="1" style="stop-color:#D9D9D9"/>
					</linearGradient>
					<path style="fill:url(#SVGID_18_);" d="M538.401,564.222c0-10.023,8.159-18.148,18.224-18.148l0,0
						c10.065,0,18.224,8.125,18.225,18.148l0,0c-0.001,10.025-8.16,18.15-18.225,18.15l0,0
						C546.56,582.372,538.401,574.248,538.401,564.222L538.401,564.222z M544.484,552.13c-3.109,3.098-5.03,7.368-5.03,12.092l0,0
						c0,4.724,1.921,8.998,5.03,12.094l0,0c3.108,3.096,7.398,5.009,12.142,5.009l0,0c4.745,0,9.032-1.913,12.143-5.009l0,0
						c3.108-3.096,5.03-7.371,5.03-12.094l0,0c0-4.724-1.922-8.994-5.03-12.092l0,0c-3.11-3.096-7.398-5.009-12.143-5.009l0,0
						C551.882,547.121,547.592,549.034,544.484,552.13L544.484,552.13z"/>
				</g>
				<path style="fill:#FFFFFF;" d="M569.152,552.513c-0.064-0.063-0.13-0.125-0.194-0.189c2.995,3.08,4.84,7.273,4.84,11.899
					c0,4.724-1.922,8.998-5.03,12.094c-3.11,3.096-7.398,5.009-12.143,5.009c-4.646,0-8.856-1.838-11.948-4.82
					c0.062,0.062,0.125,0.13,0.189,0.193c3.109,3.095,7.4,5.008,12.143,5.008c4.743,0,9.034-1.913,12.143-5.008
					c3.108-3.098,5.029-7.369,5.029-12.093C574.18,559.881,572.259,555.609,569.152,552.513z M557.009,546.457
					c4.936,0,9.411,1.953,12.692,5.124c-3.311-3.396-7.947-5.508-13.076-5.508c-10.065,0-18.224,8.125-18.224,18.148
					c0,5.111,2.121,9.725,5.53,13.024c-3.185-3.267-5.148-7.724-5.148-12.641C538.784,554.58,546.944,546.457,557.009,546.457z"/>
			</g>
			<g>
				<g style="opacity:0.6;">
					
						<image style="overflow:visible;" width="110" height="109" xlink:href="B05A977E8853F5D.png"  transform="matrix(1 0 0 1 545 511)">
					</image>
				</g>
				<g>
					<linearGradient id="SVGID_19_" gradientUnits="userSpaceOnUse" x1="592.3887" y1="548.2505" x2="606.6753" y2="580.7202">
						<stop  offset="0" style="stop-color:#ECECEC"/>
						<stop  offset="0.7919" style="stop-color:#C4C4C4"/>
						<stop  offset="1" style="stop-color:#D9D9D9"/>
					</linearGradient>
					<path style="fill:url(#SVGID_19_);" d="M581.367,564.623c0-10.023,8.162-18.147,18.226-18.147l0,0
						c10.066,0,18.225,8.124,18.225,18.147l0,0c0,10.027-8.159,18.152-18.225,18.152l0,0
						C589.529,582.775,581.367,574.65,581.367,564.623L581.367,564.623z M587.451,552.531c-3.11,3.096-5.03,7.368-5.03,12.092l0,0
						c0,4.725,1.92,8.998,5.03,12.093l0,0c3.108,3.098,7.398,5.011,12.142,5.011l0,0c4.745,0,9.034-1.913,12.143-5.011l0,0
						c3.108-3.095,5.029-7.368,5.029-12.093l0,0c0-4.724-1.921-8.995-5.029-12.092l0,0c-3.109-3.095-7.398-5.008-12.143-5.009l0,0
						C594.85,547.523,590.559,549.436,587.451,552.531L587.451,552.531z"/>
				</g>
				<path style="fill:#FFFFFF;" d="M612.121,552.913c-0.065-0.064-0.13-0.126-0.195-0.189c2.996,3.079,4.839,7.273,4.839,11.899
					c0,4.725-1.921,8.998-5.029,12.093c-3.109,3.098-7.398,5.011-12.143,5.011c-4.645,0-8.855-1.836-11.948-4.819
					c0.062,0.063,0.126,0.128,0.19,0.192c3.109,3.095,7.399,5.008,12.143,5.008c4.743,0,9.034-1.913,12.143-5.008
					c3.106-3.096,5.029-7.368,5.029-12.093C617.149,560.282,615.227,556.009,612.121,552.913z M599.978,546.855
					c4.936,0,9.411,1.954,12.691,5.128c-3.311-3.398-7.945-5.508-13.076-5.508c-10.064,0-18.226,8.124-18.226,18.147
					c0,5.111,2.123,9.727,5.533,13.023c-3.186-3.267-5.148-7.724-5.148-12.639C581.752,554.981,589.911,546.855,599.978,546.855z"/>
			</g>
		</g>
		<g>
			<polyline style="fill:#EAEA1F;" points="563.733,333.407 549.295,348.262 368.827,-18.971 402.343,-27.669 			"/>
			<polyline style="fill:#39B54A;" points="402.343,-27.669 436.123,-36.438 576.484,319.555 563.733,333.407 			"/>
			
				<image style="overflow:visible;opacity:0.5;" width="208" height="389" xlink:href="B05A977E8853F5F.png"  transform="matrix(1 0 0 1 368 -37)">
			</image>
		</g>
		<g>
			<polyline style="fill:#EAEA1F;" points="594.316,333.407 608.754,348.262 789.223,-18.971 755.707,-27.669 			"/>
			<polyline style="fill:#39B54A;" points="755.707,-27.669 721.927,-36.438 581.567,319.555 594.316,333.407 			"/>
			
				<image style="overflow:visible;opacity:0.5;" width="209" height="389" xlink:href="97D17E549B42267C.png"  transform="matrix(1 0 0 1 580 -37)">
			</image>
		</g>
	</g>
</g>
<g id="Designed_by_Freepik">
</g>
</svg>
