<?xml version="1.0" encoding="iso-8859-1"?>
<!-- Generator: Adobe Illustrator 20.0.0, SVG Export Plug-In . SVG Version: 6.00 Build 0)  -->
<svg version="1.1" xmlns="http://www.w3.org/2000/svg" xmlns:xlink="http://www.w3.org/1999/xlink" x="0px" y="0px"
	 viewBox="0 0 1200 800" style="enable-background:new 0 0 1200 800;" xml:space="preserve">
<g id="_x38_00x800">
</g>
<g id="_x31_200x800">
	<g>
		<g style="opacity:0.3;">
			
				<image style="overflow:visible;" width="494" height="777" xlink:href="302F37490B0760E3.png"  transform="matrix(1 0 0 1 331 -56)">
			</image>
		</g>
		<g>
			<g style="opacity:0.6;">
				
					<image style="overflow:visible;" width="141" height="141" xlink:href="302F37490B0760E1.png"  transform="matrix(1 0 0 1 509 284)">
				</image>
			</g>
			<g>
				<linearGradient id="SVGID_1_" gradientUnits="userSpaceOnUse" x1="564.9089" y1="322.2662" x2="591.5984" y2="382.9246">
					<stop  offset="0" style="stop-color:#FAEC80"/>
					<stop  offset="0.7919" style="stop-color:#E3C42B"/>
					<stop  offset="1" style="stop-color:#F4E026"/>
				</linearGradient>
				<path style="fill:url(#SVGID_1_);" d="M544.438,352.856c0-18.739,15.192-33.928,33.93-33.929l0,0
					c18.739,0.001,33.931,15.19,33.931,33.929l0,0c0,18.741-15.191,33.93-33.931,33.93l0,0
					C559.631,386.786,544.438,371.597,544.438,352.856L544.438,352.856z M555.763,330.25c-5.789,5.788-9.364,13.774-9.364,22.606
					l0,0c0,8.832,3.575,16.819,9.364,22.607l0,0c5.788,5.788,13.774,9.365,22.606,9.365l0,0c8.833,0,16.819-3.577,22.608-9.365l0,0
					c5.785-5.788,9.363-13.775,9.363-22.607l0,0c0-8.833-3.578-16.818-9.363-22.606l0,0c-5.789-5.788-13.775-9.363-22.608-9.364l0,0
					C569.537,320.887,561.551,324.462,555.763,330.25L555.763,330.25z"/>
			</g>
			<path style="fill:#FFFFFF;" d="M601.69,330.964c-0.119-0.119-0.24-0.236-0.361-0.354c5.578,5.758,9.012,13.596,9.012,22.246
				c0,8.832-3.578,16.819-9.363,22.607c-5.789,5.788-13.775,9.365-22.608,9.365c-8.648,0-16.486-3.434-22.243-9.011
				c0.116,0.12,0.233,0.242,0.352,0.361c5.787,5.787,13.775,9.363,22.606,9.363c8.833,0,16.819-3.576,22.607-9.363
				c5.787-5.788,9.365-13.776,9.365-22.607C611.055,344.739,607.477,336.753,601.69,330.964z M579.083,319.642
				c9.19,0,17.523,3.652,23.63,9.585c-6.164-6.353-14.793-10.3-24.345-10.3c-18.737,0.001-33.93,15.19-33.93,33.929
				c0,9.551,3.948,18.178,10.299,24.345c-5.931-6.109-9.584-14.441-9.585-23.63C545.153,334.831,560.344,319.642,579.083,319.642z"
				/>
		</g>
		<linearGradient id="SVGID_2_" gradientUnits="userSpaceOnUse" x1="432.2041" y1="520.396" x2="726.0508" y2="520.396">
			<stop  offset="0" style="stop-color:#FFE667"/>
			<stop  offset="0.2721" style="stop-color:#FFD857"/>
			<stop  offset="0.2792" style="stop-color:#FFD856"/>
			<stop  offset="0.6396" style="stop-color:#C2872B"/>
			<stop  offset="1" style="stop-color:#DCA727"/>
		</linearGradient>
		<path style="fill:url(#SVGID_2_);" d="M579.128,667.319c-81.014,0-146.924-65.91-146.924-146.924
			c0-81.013,65.91-146.923,146.924-146.923c81.015,0,146.923,65.91,146.923,146.923
			C726.051,601.409,660.143,667.319,579.128,667.319z"/>
		<g>
			<radialGradient id="SVGID_3_" cx="579.1274" cy="520.396" r="131.1577" gradientUnits="userSpaceOnUse">
				<stop  offset="0.1798" style="stop-color:#F4E8D9"/>
				<stop  offset="0.5899" style="stop-color:#EDD089"/>
				<stop  offset="1" style="stop-color:#C08329"/>
			</radialGradient>
			<path style="fill:url(#SVGID_3_);" d="M579.128,651.554c-72.321,0-131.158-58.837-131.158-131.158
				c0-72.32,58.837-131.157,131.158-131.157s131.157,58.837,131.157,131.157C710.285,592.717,651.449,651.554,579.128,651.554z"/>
			<linearGradient id="SVGID_4_" gradientUnits="userSpaceOnUse" x1="444.0283" y1="520.396" x2="714.2266" y2="520.396">
				<stop  offset="0" style="stop-color:#FAE7A0"/>
				<stop  offset="0.1798" style="stop-color:#FAE39B"/>
				<stop  offset="0.2792" style="stop-color:#F9DD8E"/>
				<stop  offset="0.5899" style="stop-color:#DCB15D"/>
				<stop  offset="0.6396" style="stop-color:#D5A754"/>
				<stop  offset="1" style="stop-color:#CE9528"/>
			</linearGradient>
			<path style="fill:url(#SVGID_4_);" d="M579.128,655.495c-74.556,0-135.1-60.543-135.1-135.1
				c0-74.555,60.544-135.099,135.1-135.099s135.099,60.543,135.099,135.099C714.227,594.952,653.684,655.495,579.128,655.495z"/>
			<linearGradient id="SVGID_5_" gradientUnits="userSpaceOnUse" x1="440.0869" y1="520.396" x2="718.168" y2="520.396">
				<stop  offset="0" style="stop-color:#FFE667"/>
				<stop  offset="0.2721" style="stop-color:#FFD857"/>
				<stop  offset="0.2792" style="stop-color:#FFD856"/>
				<stop  offset="0.6396" style="stop-color:#C2872B"/>
				<stop  offset="1" style="stop-color:#DCA727"/>
			</linearGradient>
			<circle style="fill:url(#SVGID_5_);" cx="579.128" cy="520.396" r="139.041"/>
			<radialGradient id="SVGID_6_" cx="579.1274" cy="520.396" r="131.1577" gradientUnits="userSpaceOnUse">
				<stop  offset="0" style="stop-color:#FAE7A0"/>
				<stop  offset="0.1798" style="stop-color:#FAE39B"/>
				<stop  offset="0.2792" style="stop-color:#F9DD8E"/>
				<stop  offset="0.5899" style="stop-color:#DCB15D"/>
				<stop  offset="0.6396" style="stop-color:#D5A754"/>
				<stop  offset="1" style="stop-color:#CE9528"/>
			</radialGradient>
			<path style="fill:url(#SVGID_6_);" d="M579.128,651.554c-72.382,0-131.158-58.775-131.158-131.158
				c0-72.382,58.776-131.157,131.158-131.157c72.382,0,131.157,58.775,131.157,131.157
				C710.285,592.778,651.51,651.554,579.128,651.554z"/>
			<radialGradient id="SVGID_7_" cx="579.1274" cy="520.396" r="123.2749" gradientUnits="userSpaceOnUse">
				<stop  offset="0.1798" style="stop-color:#F4E8D9"/>
				<stop  offset="0.5899" style="stop-color:#EDD089"/>
				<stop  offset="1" style="stop-color:#C08329"/>
			</radialGradient>
			<path style="fill:url(#SVGID_7_);" d="M579.128,643.671c-67.975,0-123.275-55.301-123.275-123.275
				c0-67.974,55.301-123.274,123.275-123.274c67.974,0,123.274,55.301,123.274,123.274
				C702.402,588.37,647.102,643.671,579.128,643.671z"/>
			<radialGradient id="SVGID_8_" cx="579.1279" cy="520.396" r="117.8232" gradientUnits="userSpaceOnUse">
				<stop  offset="0.1798" style="stop-color:#E6CB96"/>
				<stop  offset="0.5899" style="stop-color:#E2BF6E"/>
				<stop  offset="1" style="stop-color:#C08329"/>
			</radialGradient>
			<path style="fill:url(#SVGID_8_);" d="M579.128,639.729c-65.801,0-119.334-53.533-119.334-119.334
				c0-65.8,53.533-119.333,119.334-119.333c65.801,0,119.334,53.533,119.334,119.333
				C698.462,586.197,644.929,639.729,579.128,639.729z"/>
			<radialGradient id="SVGID_9_" cx="579.1285" cy="520.396" r="112.4712" gradientUnits="userSpaceOnUse">
				<stop  offset="0.5899" style="stop-color:#D7AD52"/>
				<stop  offset="1" style="stop-color:#C08329"/>
			</radialGradient>
			<path style="fill:url(#SVGID_9_);" d="M579.128,635.788c-63.628,0-115.393-51.765-115.393-115.393
				c0-63.627,51.765-115.392,115.393-115.392s115.394,51.765,115.394,115.392C694.521,584.023,642.756,635.788,579.128,635.788z"/>
		</g>
		<radialGradient id="SVGID_10_" cx="579.1285" cy="520.396" r="104.7879" gradientUnits="userSpaceOnUse">
			<stop  offset="0.5899" style="stop-color:#EB9C41"/>
			<stop  offset="1" style="stop-color:#C08329"/>
		</radialGradient>
		<path style="fill:url(#SVGID_10_);" d="M579.128,627.905c-59.281,0-107.51-48.228-107.51-107.51
			c0-59.28,48.228-107.509,107.51-107.509c59.28,0,107.511,48.229,107.511,107.509C686.639,579.677,638.408,627.905,579.128,627.905
			z"/>
		<radialGradient id="SVGID_11_" cx="579.1285" cy="520.396" r="103.5684" gradientUnits="userSpaceOnUse">
			<stop  offset="0.5846" style="stop-color:#C08329"/>
			<stop  offset="1" style="stop-color:#C08329"/>
		</radialGradient>
		<path style="fill:url(#SVGID_11_);stroke:#FBB03B;stroke-width:0.7883;stroke-miterlimit:10;" d="M579.128,623.964
			c-57.107,0-103.568-46.46-103.568-103.568c0-57.107,46.461-103.567,103.568-103.567c57.108,0,103.569,46.46,103.569,103.567
			C682.697,577.504,636.236,623.964,579.128,623.964z"/>
		<g>
			<linearGradient id="SVGID_12_" gradientUnits="userSpaceOnUse" x1="453.376" y1="520.1882" x2="705.8828" y2="520.1882">
				<stop  offset="0" style="stop-color:#FFE667"/>
				<stop  offset="0.2721" style="stop-color:#FFD857"/>
				<stop  offset="0.2792" style="stop-color:#FFD856"/>
				<stop  offset="0.6396" style="stop-color:#C2872B"/>
				<stop  offset="1" style="stop-color:#DCA727"/>
			</linearGradient>
			<circle style="fill:url(#SVGID_12_);" cx="579.629" cy="520.188" r="126.254"/>
			<g>
				<g>
					<linearGradient id="SVGID_13_" gradientUnits="userSpaceOnUse" x1="530.5692" y1="422.6727" x2="627.6869" y2="613.911">
						<stop  offset="0" style="stop-color:#FFE667"/>
						<stop  offset="0.2721" style="stop-color:#FFD857"/>
						<stop  offset="0.2792" style="stop-color:#FFD856"/>
						<stop  offset="0.6396" style="stop-color:#C2872B"/>
						<stop  offset="1" style="stop-color:#DCA727"/>
					</linearGradient>
					<circle style="fill:url(#SVGID_13_);" cx="579.128" cy="518.292" r="107.22"/>
					<g style="opacity:0.6;">
						
							<image style="overflow:visible;" width="262" height="266" xlink:href="302F37490B0760E7.png"  transform="matrix(1 0 0 1 433 372)">
						</image>
					</g>
					<linearGradient id="SVGID_14_" gradientUnits="userSpaceOnUse" x1="523.8375" y1="421.2314" x2="634.0499" y2="614.7023">
						<stop  offset="0" style="stop-color:#FAEC80"/>
						<stop  offset="0.7919" style="stop-color:#E3C42B"/>
						<stop  offset="1" style="stop-color:#F4E026"/>
					</linearGradient>
					<path style="fill:url(#SVGID_14_);" d="M579.128,405.086c-62.422,0-113.207,50.783-113.207,113.208
						c0,62.421,50.785,113.206,113.207,113.206c62.425,0,113.21-50.785,113.21-113.206
						C692.338,455.869,641.553,405.086,579.128,405.086z M579.128,625.584c-59.216,0-107.221-48.003-107.221-107.217
						c0-59.215,48.005-107.219,107.221-107.219c59.22,0,107.22,48.004,107.22,107.219
						C686.348,577.581,638.348,625.584,579.128,625.584z"/>
					<path style="fill:#FFFFFF;" d="M664.685,453.748c13.596,17.967,21.662,40.351,21.662,64.619
						c0,59.214-48,107.217-107.22,107.217c-33.98,0-64.264-15.809-83.906-40.476c19.571,25.877,50.608,42.601,85.556,42.601
						c59.213,0,107.221-48.005,107.221-107.22C687.998,495.255,679.273,472.061,664.685,453.748z M580.777,407.207
						c35.848,0,67.852,16.751,88.611,42.832c-20.689-27.291-53.449-44.953-90.261-44.953c-62.422,0-113.207,50.783-113.207,113.208
						c0,26.576,9.21,51.036,24.596,70.372c-14.395-18.99-22.945-42.641-22.945-68.251
						C467.571,457.989,518.354,407.207,580.777,407.207z"/>
				</g>
				<path style="display:none;opacity:0.1;fill:#FFFFFF;" d="M489.351,609.68c-49.305-49.307-49.305-129.246,0-178.551
					c49.306-49.305,129.245-49.305,178.552,0"/>
			</g>
		</g>
		<g>
			<g>
				<g style="opacity:0.6;">
					
						<image style="overflow:visible;" width="110" height="109" xlink:href="302F37490B0760E0.png"  transform="matrix(1 0 0 1 481 500)">
					</image>
				</g>
				<g>
					<linearGradient id="SVGID_15_" gradientUnits="userSpaceOnUse" x1="528.3404" y1="537.0371" x2="542.6826" y2="569.6331">
						<stop  offset="0" style="stop-color:#FAEC80"/>
						<stop  offset="0.7919" style="stop-color:#E3C42B"/>
						<stop  offset="1" style="stop-color:#F4E026"/>
					</linearGradient>
					<path style="fill:url(#SVGID_15_);" d="M517.34,553.476c0-10.07,8.164-18.232,18.233-18.232l0,0
						c10.07,0,18.233,8.162,18.233,18.232l0,0c0,10.07-8.163,18.232-18.233,18.232l0,0
						C525.504,571.708,517.34,563.546,517.34,553.476L517.34,553.476z M523.426,541.327c-3.11,3.11-5.032,7.401-5.032,12.148l0,0
						c0,4.745,1.922,9.038,5.032,12.147l0,0c3.11,3.11,7.402,5.033,12.147,5.033l0,0c4.746,0,9.037-1.923,12.148-5.033l0,0
						c3.108-3.109,5.031-7.402,5.031-12.147l0,0c0-4.747-1.923-9.038-5.031-12.148l0,0c-3.111-3.109-7.402-5.031-12.148-5.032l0,0
						C530.828,536.296,526.536,538.218,523.426,541.327L523.426,541.327z"/>
				</g>
				<path style="fill:#FFFFFF;" d="M548.106,541.711c-0.065-0.063-0.13-0.126-0.194-0.19c2.997,3.095,4.842,7.307,4.842,11.955
					c0,4.745-1.923,9.038-5.031,12.147c-3.111,3.11-7.402,5.033-12.148,5.033c-4.647,0-8.86-1.845-11.953-4.843
					c0.062,0.064,0.125,0.13,0.189,0.194c3.109,3.109,7.402,5.031,12.147,5.031c4.746,0,9.038-1.922,12.149-5.031
					c3.109-3.11,5.031-7.402,5.031-12.148C553.137,549.113,551.215,544.821,548.106,541.711z M535.957,535.627
					c4.938,0,9.416,1.963,12.698,5.151c-3.312-3.414-7.949-5.535-13.082-5.535c-10.069,0-18.233,8.162-18.233,18.232
					c0,5.132,2.122,9.768,5.535,13.082c-3.188-3.283-5.15-7.76-5.151-12.698C517.725,543.789,525.888,535.627,535.957,535.627z"/>
			</g>
			<g>
				<g style="opacity:0.6;">
					
						<image style="overflow:visible;" width="110" height="109" xlink:href="302F37490B0760EE.png"  transform="matrix(1 0 0 1 524 500)">
					</image>
				</g>
				<g>
					<linearGradient id="SVGID_16_" gradientUnits="userSpaceOnUse" x1="571.0937" y1="537.037" x2="585.4359" y2="569.6329">
						<stop  offset="0" style="stop-color:#FAEC80"/>
						<stop  offset="0.7919" style="stop-color:#E3C42B"/>
						<stop  offset="1" style="stop-color:#F4E026"/>
					</linearGradient>
					<path style="fill:url(#SVGID_16_);" d="M560.094,553.476c0-10.07,8.163-18.232,18.232-18.232l0,0
						c10.07,0,18.232,8.162,18.234,18.232l0,0c-0.002,10.07-8.164,18.232-18.234,18.232l0,0
						C568.257,571.708,560.094,563.546,560.094,553.476L560.094,553.476z M566.179,541.328c-3.11,3.109-5.032,7.4-5.032,12.147l0,0
						c0,4.745,1.922,9.038,5.032,12.147l0,0c3.11,3.11,7.402,5.033,12.147,5.033l0,0c4.746,0,9.037-1.923,12.148-5.033l0,0
						c3.109-3.109,5.031-7.402,5.031-12.147l0,0c0-4.747-1.922-9.038-5.031-12.147l0,0c-3.111-3.11-7.402-5.032-12.148-5.032l0,0
						C573.581,536.296,569.289,538.218,566.179,541.328L566.179,541.328z"/>
				</g>
				<path style="fill:#FFFFFF;" d="M590.859,541.711c-0.064-0.063-0.129-0.126-0.195-0.19c2.998,3.095,4.842,7.307,4.842,11.955
					c0,4.745-1.922,9.038-5.031,12.147c-3.111,3.11-7.402,5.033-12.148,5.033c-4.647,0-8.859-1.845-11.953-4.843
					c0.062,0.064,0.125,0.13,0.19,0.194c3.109,3.109,7.402,5.031,12.148,5.031s9.037-1.922,12.148-5.031
					c3.109-3.11,5.031-7.402,5.031-12.148C595.891,549.113,593.969,544.822,590.859,541.711z M578.711,535.627
					c4.938,0,9.416,1.963,12.697,5.151c-3.312-3.414-7.949-5.535-13.082-5.535c-10.069,0-18.232,8.162-18.232,18.232
					c0,5.132,2.121,9.768,5.534,13.082c-3.188-3.283-5.15-7.76-5.151-12.698C560.477,543.789,568.641,535.627,578.711,535.627z"/>
			</g>
			<g>
				<g style="opacity:0.6;">
					
						<image style="overflow:visible;" width="109" height="109" xlink:href="302F37490B0760EF.png"  transform="matrix(1 0 0 1 567 500)">
					</image>
				</g>
				<g>
					<linearGradient id="SVGID_17_" gradientUnits="userSpaceOnUse" x1="613.847" y1="537.0374" x2="628.1891" y2="569.6332">
						<stop  offset="0" style="stop-color:#FAEC80"/>
						<stop  offset="0.7919" style="stop-color:#E3C42B"/>
						<stop  offset="1" style="stop-color:#F4E026"/>
					</linearGradient>
					<path style="fill:url(#SVGID_17_);" d="M602.846,553.476c0-10.07,8.166-18.232,18.234-18.232l0,0
						c10.07,0,18.232,8.162,18.234,18.232l0,0c-0.002,10.07-8.164,18.232-18.234,18.232l0,0
						C611.012,571.708,602.846,563.546,602.846,553.476L602.846,553.476z M608.932,541.328c-3.111,3.109-5.031,7.4-5.031,12.147l0,0
						c0,4.745,1.92,9.038,5.031,12.147l0,0c3.111,3.11,7.402,5.033,12.148,5.033l0,0c4.746,0,9.037-1.923,12.147-5.033l0,0
						c3.111-3.109,5.033-7.402,5.033-12.147l0,0c0-4.747-1.922-9.038-5.033-12.147l0,0c-3.109-3.11-7.4-5.032-12.147-5.032l0,0
						C616.334,536.296,612.043,538.218,608.932,541.328L608.932,541.328z"/>
				</g>
				<path style="fill:#FFFFFF;" d="M633.613,541.711c-0.066-0.063-0.131-0.126-0.197-0.19c2.998,3.095,4.844,7.307,4.844,11.955
					c0,4.745-1.922,9.038-5.033,12.147c-3.109,3.11-7.4,5.033-12.147,5.033c-4.648,0-8.861-1.845-11.953-4.843
					c0.062,0.064,0.125,0.13,0.189,0.194c3.109,3.109,7.402,5.031,12.146,5.031c4.748,0,9.039-1.922,12.15-5.031
					c3.107-3.11,5.031-7.402,5.031-12.148C638.644,549.113,636.721,544.822,633.613,541.711z M621.463,535.627
					c4.939,0,9.416,1.963,12.699,5.151c-3.312-3.414-7.949-5.535-13.082-5.535c-10.068,0-18.234,8.162-18.234,18.232
					c0,5.132,2.123,9.768,5.535,13.082c-3.188-3.283-5.15-7.76-5.15-12.698C603.231,543.789,611.394,535.627,621.463,535.627z"/>
			</g>
			<g>
				<g style="opacity:0.6;">
					
						<image style="overflow:visible;" width="110" height="110" xlink:href="302F37490B0760E2.png"  transform="matrix(1 0 0 1 502 513)">
					</image>
				</g>
				<g>
					<linearGradient id="SVGID_18_" gradientUnits="userSpaceOnUse" x1="549.3821" y1="550.5247" x2="563.7242" y2="583.1204">
						<stop  offset="0" style="stop-color:#FAEC80"/>
						<stop  offset="0.7919" style="stop-color:#E3C42B"/>
						<stop  offset="1" style="stop-color:#F4E026"/>
					</linearGradient>
					<path style="fill:url(#SVGID_18_);" d="M538.382,566.963c0-10.069,8.164-18.232,18.233-18.232l0,0
						c10.069,0,18.233,8.163,18.233,18.232l0,0c-0.001,10.07-8.164,18.232-18.233,18.232l0,0
						C546.546,585.195,538.382,577.033,538.382,566.963L538.382,566.963z M544.467,554.815c-3.11,3.111-5.031,7.402-5.031,12.148
						l0,0c0,4.746,1.921,9.038,5.031,12.148l0,0c3.11,3.11,7.402,5.032,12.148,5.032l0,0c4.746,0,9.037-1.922,12.148-5.032l0,0
						c3.109-3.11,5.032-7.402,5.032-12.148l0,0c0-4.746-1.923-9.037-5.032-12.148l0,0c-3.11-3.109-7.401-5.031-12.148-5.031l0,0
						C551.869,549.783,547.577,551.705,544.467,554.815L544.467,554.815z"/>
				</g>
				<path style="fill:#FFFFFF;" d="M569.148,555.199c-0.065-0.064-0.13-0.127-0.195-0.19c2.998,3.095,4.843,7.306,4.843,11.954
					c0,4.746-1.923,9.038-5.032,12.148c-3.11,3.11-7.401,5.032-12.148,5.032c-4.648,0-8.86-1.846-11.953-4.842
					c0.062,0.063,0.125,0.13,0.188,0.193c3.11,3.11,7.403,5.032,12.148,5.032c4.746,0,9.038-1.922,12.148-5.032
					c3.109-3.11,5.031-7.403,5.031-12.147C574.179,562.601,572.257,558.31,569.148,555.199z M556.999,549.115
					c4.938,0,9.415,1.962,12.698,5.149c-3.314-3.413-7.95-5.534-13.082-5.534c-10.069,0-18.233,8.163-18.233,18.232
					c0,5.133,2.122,9.768,5.534,13.083c-3.187-3.283-5.15-7.761-5.15-12.698C538.766,557.276,546.929,549.115,556.999,549.115z"/>
			</g>
			<g>
				<g style="opacity:0.6;">
					
						<image style="overflow:visible;" width="110" height="110" xlink:href="302F37490B0760E5.png"  transform="matrix(1 0 0 1 545 513)">
					</image>
				</g>
				<g>
					<linearGradient id="SVGID_19_" gradientUnits="userSpaceOnUse" x1="592.3698" y1="550.9275" x2="606.712" y2="583.5236">
						<stop  offset="0" style="stop-color:#FAEC80"/>
						<stop  offset="0.7919" style="stop-color:#E3C42B"/>
						<stop  offset="1" style="stop-color:#F4E026"/>
					</linearGradient>
					<path style="fill:url(#SVGID_19_);" d="M581.369,567.365c0-10.069,8.164-18.231,18.233-18.231l0,0
						c10.072,0,18.234,8.162,18.234,18.231l0,0c0,10.071-8.162,18.233-18.234,18.233l0,0
						C589.533,585.599,581.369,577.437,581.369,567.365L581.369,567.365z M587.455,555.218c-3.111,3.11-5.031,7.401-5.031,12.147
						l0,0c0,4.746,1.92,9.039,5.031,12.148l0,0c3.109,3.11,7.402,5.032,12.147,5.032l0,0c4.748,0,9.039-1.922,12.15-5.032l0,0
						c3.107-3.109,5.031-7.402,5.031-12.148l0,0c0-4.746-1.924-9.037-5.031-12.147l0,0c-3.111-3.109-7.402-5.031-12.15-5.032l0,0
						C594.857,550.187,590.565,552.108,587.455,555.218L587.455,555.218z"/>
				</g>
				<path style="fill:#FFFFFF;" d="M612.135,555.602c-0.065-0.065-0.129-0.126-0.193-0.191c2.998,3.094,4.842,7.307,4.842,11.954
					c0,4.746-1.924,9.039-5.031,12.148c-3.111,3.11-7.402,5.032-12.15,5.032c-4.647,0-8.858-1.845-11.951-4.842
					c0.062,0.065,0.125,0.129,0.189,0.194c3.109,3.109,7.402,5.031,12.148,5.031c4.744,0,9.037-1.922,12.147-5.031
					c3.109-3.11,5.033-7.402,5.033-12.148S615.244,558.712,612.135,555.602z M599.988,549.517c4.938,0,9.414,1.963,12.695,5.151
					c-3.312-3.414-7.947-5.534-13.082-5.534c-10.068,0-18.233,8.162-18.233,18.231c0,5.133,2.123,9.77,5.535,13.082
					c-3.188-3.282-5.15-7.76-5.15-12.697C581.754,557.679,589.916,549.517,599.988,549.517z"/>
			</g>
		</g>
		<g>
			<polyline style="fill:#EAEA1F;" points="563.63,335.094 549.185,350.017 368.635,-18.892 402.166,-27.631 			"/>
			<polyline style="fill:#39B54A;" points="402.166,-27.631 435.96,-36.439 576.386,321.178 563.63,335.094 			"/>
			
				<image style="overflow:visible;opacity:0.5;" width="208" height="390" xlink:href="302F37490B0760E6.png"  transform="matrix(1 0 0 1 368 -37)">
			</image>
		</g>
		<g>
			<polyline style="fill:#EAEA1F;" points="594.227,335.094 608.672,350.017 789.223,-18.892 755.691,-27.631 			"/>
			<polyline style="fill:#39B54A;" points="755.691,-27.631 721.896,-36.439 581.471,321.178 594.227,335.094 			"/>
			
				<image style="overflow:visible;opacity:0.5;" width="209" height="390" xlink:href="F6D2FD8E981100D0.png"  transform="matrix(1 0 0 1 580 -37)">
			</image>
		</g>
	</g>
</g>
<g id="Designed_by_Freepik">
</g>
</svg>
