<?xml version="1.0" encoding="iso-8859-1"?>
<!-- Generator: Adobe Illustrator 20.0.0, SVG Export Plug-In . SVG Version: 6.00 Build 0)  -->
<svg version="1.1" xmlns="http://www.w3.org/2000/svg" xmlns:xlink="http://www.w3.org/1999/xlink" x="0px" y="0px"
	 viewBox="0 0 1200 800" style="enable-background:new 0 0 1200 800;" xml:space="preserve">
<g id="_x38_00x800">
</g>
<g id="_x31_200x800">
	<g>
		<g style="opacity:0.3;">
			
				<image style="overflow:visible;" width="494" height="777" xlink:href="48DE52A43FB0B801.png"  transform="matrix(1 0 0 1 331 -56)">
			</image>
		</g>
		<g>
			<g style="opacity:0.6;">
				
					<image style="overflow:visible;" width="141" height="141" xlink:href="48DE52A43FB0B800.png"  transform="matrix(1 0 0 1 509 284)">
				</image>
			</g>
			<g>
				<linearGradient id="SVGID_1_" gradientUnits="userSpaceOnUse" x1="564.9053" y1="322.4165" x2="591.6019" y2="383.0907">
					<stop  offset="0" style="stop-color:#EBA978"/>
					<stop  offset="0.7919" style="stop-color:#E07B30"/>
					<stop  offset="1" style="stop-color:#E38B2F"/>
				</linearGradient>
				<path style="fill:url(#SVGID_1_);" d="M544.454,353.015c0-18.747,15.186-33.942,33.916-33.943l0,0
					c18.73,0.001,33.913,15.196,33.914,33.943l0,0c-0.001,18.747-15.184,33.943-33.914,33.943l0,0
					C559.639,386.958,544.454,371.762,544.454,353.015L544.454,353.015z M555.772,330.398c-5.786,5.791-9.36,13.78-9.36,22.616l0,0
					c0,8.835,3.574,16.827,9.36,22.617l0,0c5.785,5.789,13.77,9.368,22.597,9.368l0,0c8.828,0,16.81-3.579,22.596-9.368l0,0
					c5.783-5.79,9.36-13.781,9.36-22.617l0,0c0-8.837-3.577-16.826-9.36-22.616l0,0c-5.786-5.789-13.768-9.367-22.596-9.367l0,0
					C569.542,321.031,561.557,324.609,555.772,330.398L555.772,330.398z"/>
			</g>
			<path style="fill:#F4C9D0;" d="M601.678,331.113c-0.118-0.118-0.239-0.235-0.36-0.354c5.576,5.761,9.007,13.602,9.007,22.256
				c0,8.835-3.577,16.827-9.36,22.617c-5.786,5.789-13.768,9.368-22.596,9.368c-8.646,0-16.481-3.435-22.235-9.015
				c0.118,0.12,0.233,0.241,0.353,0.361c5.784,5.79,13.769,9.367,22.596,9.367s16.811-3.577,22.596-9.367
				c5.787-5.79,9.361-13.782,9.361-22.616C611.039,344.894,607.465,336.904,601.678,331.113z M579.082,319.787
				c9.186,0,17.513,3.654,23.62,9.589c-6.163-6.356-14.786-10.304-24.333-10.304c-18.73,0.001-33.916,15.196-33.916,33.943
				c0,9.554,3.947,18.186,10.293,24.355c-5.926-6.112-9.579-14.447-9.58-23.64C545.168,334.981,560.352,319.787,579.082,319.787z"/>
		</g>
		<linearGradient id="SVGID_2_" gradientUnits="userSpaceOnUse" x1="432.3668" y1="520.6224" x2="726.0806" y2="520.6224">
			<stop  offset="0" style="stop-color:#E89F63"/>
			<stop  offset="0.2792" style="stop-color:#E69254"/>
			<stop  offset="0.6396" style="stop-color:#D95729"/>
			<stop  offset="1" style="stop-color:#DD6A2A"/>
		</linearGradient>
		<path style="fill:url(#SVGID_2_);" d="M579.224,667.605c-80.977,0-146.857-65.937-146.857-146.983s65.88-146.982,146.857-146.982
			c80.978,0,146.857,65.936,146.857,146.982S660.202,667.605,579.224,667.605z"/>
		<g>
			
				<radialGradient id="SVGID_3_" cx="649.7069" cy="451.9178" r="98.757" gradientTransform="matrix(1.3275 0 0 1.3286 -283.2512 -79.808)" gradientUnits="userSpaceOnUse">
				<stop  offset="0.1798" style="stop-color:#EFB4B5"/>
				<stop  offset="0.5899" style="stop-color:#E99B7C"/>
				<stop  offset="1" style="stop-color:#D95427"/>
			</radialGradient>
			<path style="fill:url(#SVGID_3_);" d="M579.224,651.833c-72.288,0-131.097-58.86-131.097-131.211
				c0-72.351,58.809-131.212,131.097-131.212c72.288,0,131.1,58.86,131.1,131.212C710.323,592.973,651.512,651.833,579.224,651.833z
				"/>
			
				<linearGradient id="SVGID_4_" gradientUnits="userSpaceOnUse" x1="503.3868" y1="481.4219" x2="735.4621" y2="481.4219" gradientTransform="matrix(1.1637 0 0 1.1643 -141.6256 -39.904)">
				<stop  offset="0" style="stop-color:#ECAA8C"/>
				<stop  offset="0.1798" style="stop-color:#EBA688"/>
				<stop  offset="0.2792" style="stop-color:#EAA07E"/>
				<stop  offset="0.5899" style="stop-color:#E27D56"/>
				<stop  offset="0.6396" style="stop-color:#E0754E"/>
				<stop  offset="1" style="stop-color:#DB5F29"/>
			</linearGradient>
			<path style="fill:url(#SVGID_4_);" d="M579.224,655.776c-74.521,0-135.037-60.568-135.037-135.154
				c0-74.587,60.515-135.155,135.037-135.155c74.522,0,135.039,60.568,135.039,135.155
				C714.263,595.208,653.746,655.776,579.224,655.776z"/>
			<linearGradient id="SVGID_5_" gradientUnits="userSpaceOnUse" x1="440.2474" y1="520.6218" x2="718.2026" y2="520.6218">
				<stop  offset="0" style="stop-color:#E89F63"/>
				<stop  offset="0.2792" style="stop-color:#E69254"/>
				<stop  offset="0.6396" style="stop-color:#D95729"/>
				<stop  offset="1" style="stop-color:#DD6A2A"/>
			</linearGradient>
			<ellipse style="fill:url(#SVGID_5_);" cx="579.224" cy="520.622" rx="138.978" ry="139.097"/>
			
				<radialGradient id="SVGID_6_" cx="619.4242" cy="481.422" r="112.6733" gradientTransform="matrix(1.1637 0 0 1.1643 -141.6256 -39.904)" gradientUnits="userSpaceOnUse">
				<stop  offset="0" style="stop-color:#ECAA8C"/>
				<stop  offset="0.1798" style="stop-color:#EBA688"/>
				<stop  offset="0.2792" style="stop-color:#EAA07E"/>
				<stop  offset="0.5899" style="stop-color:#E27D56"/>
				<stop  offset="0.6396" style="stop-color:#E0754E"/>
				<stop  offset="1" style="stop-color:#DB5F29"/>
			</radialGradient>
			<path style="fill:url(#SVGID_6_);" d="M579.224,651.833c-72.349,0-131.098-58.8-131.098-131.211
				c0-72.412,58.749-131.211,131.098-131.211c72.349,0,131.1,58.8,131.1,131.211C710.323,593.034,651.573,651.833,579.224,651.833z"
				/>
			
				<radialGradient id="SVGID_7_" cx="649.7064" cy="451.918" r="92.8215" gradientTransform="matrix(1.3275 0 0 1.3286 -283.2512 -79.808)" gradientUnits="userSpaceOnUse">
				<stop  offset="0.1798" style="stop-color:#EFB4B5"/>
				<stop  offset="0.5899" style="stop-color:#E99B7C"/>
				<stop  offset="1" style="stop-color:#D95427"/>
			</radialGradient>
			<path style="fill:url(#SVGID_7_);" d="M579.224,643.947c-67.943,0-123.219-55.324-123.219-123.325
				s55.276-123.325,123.219-123.325c67.943,0,123.22,55.324,123.22,123.325S647.167,643.947,579.224,643.947z"/>
			
				<radialGradient id="SVGID_8_" cx="649.7064" cy="451.9183" r="88.7165" gradientTransform="matrix(1.3275 0 0 1.3286 -283.2512 -79.808)" gradientUnits="userSpaceOnUse">
				<stop  offset="0.1798" style="stop-color:#E89681"/>
				<stop  offset="0.5899" style="stop-color:#E58A64"/>
				<stop  offset="1" style="stop-color:#D95427"/>
			</radialGradient>
			<path style="fill:url(#SVGID_8_);" d="M579.224,640.005c-65.77,0-119.279-53.554-119.279-119.382
				c0-65.827,53.509-119.382,119.279-119.382c65.771,0,119.281,53.555,119.281,119.382
				C698.504,586.45,644.994,640.005,579.224,640.005z"/>
			
				<radialGradient id="SVGID_9_" cx="649.7064" cy="451.9185" r="84.6865" gradientTransform="matrix(1.3275 0 0 1.3286 -283.2512 -79.808)" gradientUnits="userSpaceOnUse">
				<stop  offset="0.5899" style="stop-color:#E1784C"/>
				<stop  offset="1" style="stop-color:#D95427"/>
			</radialGradient>
			<path style="fill:url(#SVGID_9_);" d="M579.224,636.062c-63.597,0-115.339-51.785-115.339-115.44
				c0-63.653,51.742-115.439,115.339-115.439c63.599,0,115.341,51.786,115.341,115.439
				C694.565,584.277,642.822,636.062,579.224,636.062z"/>
		</g>
		
			<radialGradient id="SVGID_10_" cx="649.7059" cy="451.9178" r="78.9009" gradientTransform="matrix(1.3275 0 0 1.3286 -283.2512 -79.808)" gradientUnits="userSpaceOnUse">
			<stop  offset="0.5899" style="stop-color:#DD693D"/>
			<stop  offset="1" style="stop-color:#D95427"/>
		</radialGradient>
		<path style="fill:url(#SVGID_10_);" d="M579.224,628.175c-59.253,0-107.46-48.248-107.46-107.553
			c0-59.306,48.207-107.553,107.46-107.553c59.256,0,107.46,48.248,107.46,107.553C686.684,579.926,638.479,628.175,579.224,628.175
			z"/>
		
			<radialGradient id="SVGID_11_" cx="649.7064" cy="451.9178" r="77.9828" gradientTransform="matrix(1.3275 0 0 1.3286 -283.2512 -79.808)" gradientUnits="userSpaceOnUse">
			<stop  offset="0.5846" style="stop-color:#D95427"/>
			<stop  offset="1" style="stop-color:#D95427"/>
		</radialGradient>
		<path style="fill:url(#SVGID_11_);stroke:#DF743A;stroke-width:0.5935;stroke-miterlimit:10;" d="M579.224,624.232
			c-57.081,0-103.52-46.477-103.52-103.609c0-57.131,46.44-103.61,103.52-103.61c57.082,0,103.522,46.479,103.522,103.61
			C682.745,577.754,636.305,624.232,579.224,624.232z"/>
		<g>
			<linearGradient id="SVGID_12_" gradientUnits="userSpaceOnUse" x1="453.5287" y1="520.4139" x2="705.922" y2="520.4139">
				<stop  offset="0" style="stop-color:#E89F63"/>
				<stop  offset="0.2792" style="stop-color:#E69254"/>
				<stop  offset="0.6396" style="stop-color:#D95729"/>
				<stop  offset="1" style="stop-color:#DD6A2A"/>
			</linearGradient>
			<ellipse style="fill:url(#SVGID_12_);" cx="579.725" cy="520.414" rx="126.197" ry="126.306"/>
			<g>
				<g>
					<linearGradient id="SVGID_13_" gradientUnits="userSpaceOnUse" x1="530.5574" y1="422.8763" x2="627.697" y2="614.1577">
						<stop  offset="0" style="stop-color:#E89F63"/>
						<stop  offset="0.2792" style="stop-color:#E69254"/>
						<stop  offset="0.6396" style="stop-color:#D95729"/>
						<stop  offset="1" style="stop-color:#DD6A2A"/>
					</linearGradient>
					<ellipse style="fill:url(#SVGID_13_);" cx="579.127" cy="518.517" rx="107.171" ry="107.262"/>
					<g style="opacity:0.6;">
						
							<image style="overflow:visible;" width="262" height="266" xlink:href="48DE52A43FB0B81F.png"  transform="matrix(1 0 0 1 433 372)">
						</image>
					</g>
					<linearGradient id="SVGID_14_" gradientUnits="userSpaceOnUse" x1="523.8257" y1="421.4377" x2="634.0598" y2="614.9464">
						<stop  offset="0" style="stop-color:#EBA978"/>
						<stop  offset="0.7919" style="stop-color:#E07B30"/>
						<stop  offset="1" style="stop-color:#E38B2F"/>
					</linearGradient>
					<path style="fill:url(#SVGID_14_);" d="M579.128,405.265c-62.393,0-113.156,50.805-113.156,113.256
						c0,62.444,50.763,113.251,113.156,113.251c62.396,0,113.158-50.807,113.158-113.251
						C692.286,456.07,641.523,405.265,579.128,405.265z M579.128,625.852c-59.19,0-107.172-48.023-107.172-107.261
						c0-59.238,47.983-107.261,107.172-107.261c59.194,0,107.17,48.023,107.17,107.261
						C686.297,577.83,638.321,625.852,579.128,625.852z"/>
					<path style="fill:#F4C9D0;" d="M664.647,453.947c13.587,17.973,21.651,40.367,21.651,64.645
						c0,59.238-47.976,107.261-107.17,107.261c-33.965,0-64.235-15.815-83.868-40.492c19.561,25.89,50.584,42.617,85.517,42.617
						c59.186,0,107.17-48.023,107.17-107.262C687.947,495.471,679.227,472.268,664.647,453.947z M580.777,407.387
						c35.829,0,67.82,16.759,88.569,42.849c-20.68-27.302-53.425-44.971-90.218-44.971c-62.393,0-113.156,50.805-113.156,113.256
						c0,26.585,9.205,51.056,24.586,70.398c-14.388-18.996-22.934-42.656-22.934-68.276
						C467.623,458.19,518.382,407.387,580.777,407.387z"/>
				</g>
				<path style="display:none;opacity:0.1;fill:#F4C9D0;" d="M489.488,609.941c-49.283-49.325-49.283-129.298,0-178.622
					c49.282-49.325,129.186-49.325,178.47,0"/>
			</g>
		</g>
		<g>
			<g>
				<g style="opacity:0.6;">
					
						<image style="overflow:visible;" width="110" height="109" xlink:href="48DE52A43FB0B81C.png"  transform="matrix(1 0 0 1 481 500)">
					</image>
				</g>
				<g>
					<linearGradient id="SVGID_15_" gradientUnits="userSpaceOnUse" x1="528.3583" y1="537.2722" x2="542.7041" y2="569.8763">
						<stop  offset="0" style="stop-color:#EBA978"/>
						<stop  offset="0.7919" style="stop-color:#E07B30"/>
						<stop  offset="1" style="stop-color:#E38B2F"/>
					</linearGradient>
					<path style="fill:url(#SVGID_15_);" d="M517.369,553.714c0-10.075,8.158-18.239,18.225-18.239l0,0
						c10.065,0,18.224,8.164,18.224,18.239l0,0c0,10.074-8.159,18.24-18.224,18.24l0,0
						C525.527,571.955,517.369,563.788,517.369,553.714L517.369,553.714z M523.45,541.561c-3.109,3.113-5.03,7.406-5.03,12.154l0,0
						c0,4.748,1.921,9.042,5.03,12.152l0,0c3.11,3.111,7.398,5.036,12.143,5.036l0,0c4.743,0,9.032-1.924,12.142-5.036l0,0
						c3.108-3.11,5.03-7.405,5.03-12.152l0,0c0-4.747-1.922-9.041-5.03-12.154l0,0c-3.11-3.11-7.398-5.033-12.142-5.034l0,0
						C530.848,536.528,526.56,538.451,523.45,541.561L523.45,541.561z"/>
				</g>
				<path style="fill:#F4C9D0;" d="M548.119,541.946c-0.065-0.065-0.13-0.127-0.193-0.191c2.995,3.096,4.839,7.31,4.839,11.959
					c0,4.748-1.922,9.042-5.03,12.152c-3.11,3.111-7.398,5.036-12.142,5.036c-4.648,0-8.857-1.845-11.949-4.845
					c0.063,0.065,0.126,0.13,0.19,0.193c3.108,3.111,7.398,5.034,12.141,5.034c4.745,0,9.034-1.923,12.143-5.034
					c3.109-3.109,5.03-7.404,5.03-12.152C553.148,549.351,551.227,545.056,548.119,541.946z M535.975,535.859
					c4.935,0,9.413,1.964,12.693,5.154c-3.311-3.415-7.947-5.536-13.075-5.536c-10.066,0-18.225,8.164-18.225,18.239
					c0,5.136,2.121,9.773,5.532,13.088c-3.185-3.285-5.149-7.763-5.149-12.704C517.751,544.025,525.912,535.859,535.975,535.859z"/>
			</g>
			<g>
				<g style="opacity:0.6;">
					
						<image style="overflow:visible;" width="110" height="109" xlink:href="48DE52A43FB0B81D.png"  transform="matrix(1 0 0 1 524 500)">
					</image>
				</g>
				<g>
					<linearGradient id="SVGID_16_" gradientUnits="userSpaceOnUse" x1="571.0924" y1="537.2722" x2="585.4382" y2="569.8763">
						<stop  offset="0" style="stop-color:#EBA978"/>
						<stop  offset="0.7919" style="stop-color:#E07B30"/>
						<stop  offset="1" style="stop-color:#E38B2F"/>
					</linearGradient>
					<path style="fill:url(#SVGID_16_);" d="M560.102,553.714c0-10.075,8.159-18.239,18.225-18.239l0,0
						c10.066,0,18.224,8.164,18.226,18.239l0,0c-0.001,10.074-8.159,18.24-18.226,18.24l0,0
						C568.262,571.955,560.102,563.788,560.102,553.714L560.102,553.714z M566.185,541.562c-3.11,3.111-5.03,7.405-5.03,12.152l0,0
						c0,4.748,1.92,9.042,5.03,12.152l0,0c3.107,3.111,7.4,5.036,12.142,5.036l0,0c4.745,0,9.033-1.924,12.143-5.036l0,0
						c3.107-3.11,5.029-7.405,5.029-12.152l0,0c0-4.747-1.921-9.041-5.029-12.152l0,0c-3.11-3.111-7.398-5.034-12.143-5.034l0,0
						C573.584,536.528,569.292,538.451,566.185,541.562L566.185,541.562z"/>
				</g>
				<path style="fill:#F4C9D0;" d="M590.853,541.946c-0.065-0.065-0.13-0.127-0.193-0.191c2.993,3.096,4.838,7.31,4.838,11.959
					c0,4.748-1.921,9.042-5.029,12.152c-3.11,3.111-7.398,5.036-12.143,5.036c-4.646,0-8.857-1.845-11.949-4.845
					c0.062,0.065,0.126,0.13,0.189,0.193c3.109,3.111,7.398,5.034,12.143,5.034c4.744,0,9.033-1.923,12.143-5.034
					c3.106-3.109,5.03-7.404,5.03-12.152C595.883,549.351,593.96,545.058,590.853,541.946z M578.71,535.859
					c4.935,0,9.412,1.964,12.693,5.154c-3.311-3.415-7.947-5.536-13.076-5.536c-10.065,0-18.225,8.164-18.225,18.239
					c0,5.136,2.12,9.773,5.53,13.088c-3.185-3.285-5.148-7.763-5.148-12.704C560.485,544.025,568.645,535.859,578.71,535.859z"/>
			</g>
			<g>
				<g style="opacity:0.6;">
					
						<image style="overflow:visible;" width="109" height="109" xlink:href="48DE52A43FB0B81E.png"  transform="matrix(1 0 0 1 567 500)">
					</image>
				</g>
				<g>
					<linearGradient id="SVGID_17_" gradientUnits="userSpaceOnUse" x1="613.8257" y1="537.2722" x2="628.1714" y2="569.8763">
						<stop  offset="0" style="stop-color:#EBA978"/>
						<stop  offset="0.7919" style="stop-color:#E07B30"/>
						<stop  offset="1" style="stop-color:#E38B2F"/>
					</linearGradient>
					<path style="fill:url(#SVGID_17_);" d="M602.835,553.714c0-10.075,8.161-18.239,18.226-18.239l0,0
						c10.065,0,18.224,8.164,18.227,18.239l0,0c-0.003,10.074-8.162,18.24-18.227,18.24l0,0
						C610.995,571.955,602.835,563.788,602.835,553.714L602.835,553.714z M608.918,541.562c-3.111,3.111-5.03,7.405-5.03,12.152l0,0
						c0,4.748,1.919,9.042,5.03,12.152l0,0c3.109,3.111,7.398,5.036,12.142,5.036l0,0c4.745,0,9.034-1.924,12.141-5.036l0,0
						c3.11-3.11,5.031-7.405,5.031-12.152l0,0c0-4.747-1.921-9.041-5.031-12.152l0,0c-3.106-3.111-7.396-5.034-12.141-5.034l0,0
						C616.317,536.528,612.027,538.451,608.918,541.562L608.918,541.562z"/>
				</g>
				<path style="fill:#F4C9D0;" d="M633.587,541.946c-0.065-0.065-0.13-0.127-0.196-0.191c2.999,3.096,4.841,7.31,4.841,11.959
					c0,4.748-1.921,9.042-5.031,12.152c-3.106,3.111-7.396,5.036-12.141,5.036c-4.645,0-8.857-1.845-11.949-4.845
					c0.063,0.065,0.126,0.13,0.19,0.193c3.109,3.111,7.398,5.034,12.142,5.034c4.746,0,9.033-1.923,12.143-5.034
					c3.107-3.109,5.029-7.404,5.029-12.152C638.616,549.351,636.694,545.058,633.587,541.946z M621.444,535.859
					c4.935,0,9.41,1.964,12.693,5.154c-3.312-3.415-7.946-5.536-13.077-5.536c-10.065,0-18.226,8.164-18.226,18.239
					c0,5.136,2.122,9.773,5.534,13.088c-3.188-3.285-5.149-7.763-5.151-12.704C603.22,544.025,611.378,535.859,621.444,535.859z"/>
			</g>
			<g>
				<g style="opacity:0.6;">
					
						<image style="overflow:visible;" width="109" height="110" xlink:href="48DE52A43FB0B817.png"  transform="matrix(1 0 0 1 503 513)">
					</image>
				</g>
				<g>
					<linearGradient id="SVGID_18_" gradientUnits="userSpaceOnUse" x1="549.3896" y1="550.7658" x2="563.7352" y2="583.3696">
						<stop  offset="0" style="stop-color:#EBA978"/>
						<stop  offset="0.7919" style="stop-color:#E07B30"/>
						<stop  offset="1" style="stop-color:#E38B2F"/>
					</linearGradient>
					<path style="fill:url(#SVGID_18_);" d="M538.4,567.208c0-10.074,8.161-18.24,18.226-18.24l0,0
						c10.065,0,18.223,8.166,18.223,18.24l0,0c0,10.074-8.158,18.239-18.223,18.239l0,0C546.56,585.447,538.4,577.282,538.4,567.208
						L538.4,567.208z M544.482,555.053c-3.11,3.114-5.03,7.407-5.03,12.155l0,0c0,4.746,1.92,9.042,5.03,12.152l0,0
						c3.109,3.111,7.4,5.034,12.143,5.034l0,0c4.743,0,9.033-1.923,12.143-5.034l0,0c3.106-3.11,5.029-7.406,5.029-12.152l0,0
						c0-4.748-1.923-9.041-5.029-12.155l0,0c-3.11-3.11-7.4-5.033-12.143-5.033l0,0
						C551.882,550.021,547.591,551.943,544.482,555.053L544.482,555.053z"/>
				</g>
				<path style="fill:#F4C9D0;" d="M569.15,555.439c-0.062-0.064-0.127-0.127-0.193-0.189c2.997,3.094,4.841,7.307,4.841,11.959
					c0,4.746-1.923,9.042-5.029,12.152c-3.11,3.111-7.4,5.034-12.143,5.034c-4.646,0-8.857-1.848-11.949-4.844
					c0.062,0.064,0.125,0.131,0.189,0.193c3.109,3.111,7.4,5.034,12.142,5.034c4.743,0,9.036-1.923,12.142-5.034
					c3.109-3.111,5.03-7.406,5.03-12.151C574.179,562.845,572.258,558.551,569.15,555.439z M557.008,549.352
					c4.938,0,9.412,1.963,12.693,5.152c-3.311-3.414-7.945-5.536-13.075-5.536c-10.065,0-18.226,8.166-18.226,18.24
					c0,5.133,2.121,9.773,5.532,13.086c-3.185-3.283-5.148-7.763-5.148-12.701C538.783,557.516,546.943,549.352,557.008,549.352z"/>
			</g>
			<g>
				<g style="opacity:0.6;">
					
						<image style="overflow:visible;" width="110" height="109" xlink:href="48DE52A43FB0B830.png"  transform="matrix(1 0 0 1 545 514)">
					</image>
				</g>
				<g>
					<linearGradient id="SVGID_19_" gradientUnits="userSpaceOnUse" x1="592.3578" y1="551.1686" x2="606.7036" y2="583.7728">
						<stop  offset="0" style="stop-color:#EBA978"/>
						<stop  offset="0.7919" style="stop-color:#E07B30"/>
						<stop  offset="1" style="stop-color:#E38B2F"/>
					</linearGradient>
					<path style="fill:url(#SVGID_19_);" d="M581.368,567.611c0-10.074,8.159-18.239,18.224-18.239l0,0
						c10.066,0,18.224,8.165,18.224,18.239l0,0c0,10.075-8.158,18.24-18.224,18.24l0,0
						C589.527,585.851,581.368,577.686,581.368,567.611L581.368,567.611z M587.45,555.457c-3.11,3.113-5.03,7.406-5.03,12.154l0,0
						c0,4.747,1.92,9.042,5.03,12.152l0,0c3.109,3.113,7.398,5.034,12.142,5.034l0,0c4.746,0,9.034-1.922,12.144-5.034l0,0
						c3.106-3.11,5.027-7.405,5.027-12.152l0,0c0-4.747-1.921-9.041-5.027-12.154l0,0c-3.11-3.11-7.398-5.033-12.144-5.034l0,0
						C594.849,550.424,590.559,552.347,587.45,555.457L587.45,555.457z"/>
				</g>
				<path style="fill:#F4C9D0;" d="M612.119,555.841c-0.063-0.063-0.13-0.126-0.193-0.189c2.996,3.094,4.838,7.31,4.838,11.959
					c0,4.747-1.921,9.042-5.027,12.152c-3.11,3.113-7.398,5.034-12.144,5.034c-4.644,0-8.854-1.846-11.947-4.842
					c0.062,0.064,0.124,0.127,0.19,0.193c3.109,3.111,7.398,5.033,12.142,5.033c4.743,0,9.034-1.922,12.142-5.033
					c3.107-3.111,5.03-7.405,5.03-12.155C617.149,563.248,615.227,558.954,612.119,555.841z M599.977,549.755
					c4.935,0,9.41,1.963,12.693,5.154c-3.314-3.415-7.946-5.536-13.078-5.536c-10.065,0-18.224,8.165-18.224,18.239
					c0,5.134,2.122,9.774,5.533,13.086c-3.186-3.283-5.148-7.762-5.149-12.704C581.753,557.92,589.911,549.755,599.977,549.755z"/>
			</g>
		</g>
		<g>
			<polyline style="fill:#EAEA1F;" points="563.733,335.244 549.294,350.174 368.826,-18.885 402.343,-27.628 			"/>
			<polyline style="fill:#39B54A;" points="402.343,-27.628 436.121,-36.439 576.482,321.324 563.733,335.244 			"/>
			
				<image style="overflow:visible;opacity:0.5;" width="208" height="391" xlink:href="48DE52A43FB0B831.png"  transform="matrix(1 0 0 1 368 -37)">
			</image>
		</g>
		<g>
			<polyline style="fill:#EAEA1F;" points="594.316,335.244 608.754,350.174 789.223,-18.885 755.707,-27.628 			"/>
			<polyline style="fill:#39B54A;" points="755.707,-27.628 721.928,-36.439 581.565,321.324 594.316,335.244 			"/>
			
				<image style="overflow:visible;opacity:0.5;" width="209" height="391" xlink:href="8821F1BD348A9971.png"  transform="matrix(1 0 0 1 580 -37)">
			</image>
		</g>
	</g>
</g>
<g id="Designed_by_Freepik">
</g>
</svg>
